<svg id="svg" version="1.1" xmlns="http://www.w3.org/2000/svg" xmlns:xlink="http://www.w3.org/1999/xlink" width="400" height="219.44444444444446" viewBox="0, 0, 400,219.44444444444446"><g id="svgg"><path id="path0" d="M186.443 8.286 C 184.470 8.367,184.163 8.623,185.279 9.258 C 186.052 9.698,186.058 9.727,186.377 15.148 C 186.759 21.646,186.735 22.066,185.948 22.648 C 184.957 23.381,185.416 23.541,188.008 23.367 C 190.468 23.203,190.751 23.045,189.683 22.438 C 188.917 22.002,188.925 22.040,188.599 17.344 C 188.171 11.192,188.245 9.761,189.018 9.189 C 189.747 8.651,189.583 8.085,188.722 8.168 C 188.465 8.192,187.440 8.246,186.443 8.286 M198.576 8.338 C 198.482 8.490,198.697 8.872,199.096 9.262 C 199.765 9.916,200.013 10.545,200.552 12.953 C 200.701 13.617,201.193 15.741,201.645 17.673 C 202.097 19.605,202.555 21.623,202.661 22.158 C 202.876 23.234,203.430 24.226,203.716 24.049 C 203.904 23.933,206.388 19.411,208.666 15.038 C 210.203 12.088,210.801 11.273,211.767 10.813 C 213.008 10.221,212.888 10.133,210.269 9.717 C 208.755 9.476,208.295 9.659,208.857 10.280 C 209.592 11.092,209.625 10.998,206.424 17.124 C 205.635 18.633,204.909 19.957,204.811 20.066 C 204.523 20.384,204.242 19.484,203.188 14.859 C 202.176 10.421,202.153 9.891,202.958 9.583 C 203.142 9.512,203.293 9.307,203.293 9.128 C 203.293 8.809,203.057 8.741,200.988 8.470 C 200.505 8.406,199.801 8.292,199.423 8.216 C 198.994 8.130,198.676 8.176,198.576 8.338 M172.396 9.963 C 170.605 10.487,170.245 10.878,171.304 11.149 C 172.273 11.397,172.626 12.165,173.442 15.807 C 173.537 16.229,173.833 17.389,174.099 18.383 C 174.794 20.975,174.641 21.135,172.835 19.698 C 167.162 15.183,163.249 12.477,162.582 12.606 C 162.212 12.678,161.492 12.798,160.980 12.873 C 159.462 13.095,159.168 14.037,160.614 14.047 C 161.648 14.055,161.890 14.629,163.464 20.812 C 164.857 26.286,164.846 26.157,163.990 26.976 C 163.140 27.788,163.584 28.039,165.013 27.554 C 165.548 27.372,166.206 27.220,166.473 27.216 C 167.090 27.207,167.817 26.667,167.627 26.359 C 167.547 26.231,167.194 26.125,166.842 26.125 C 165.864 26.125,165.601 25.570,164.663 21.515 C 164.565 21.092,164.184 19.610,163.817 18.222 C 163.448 16.827,163.233 15.611,163.336 15.505 C 163.561 15.274,163.553 15.268,170.542 20.475 C 176.545 24.947,177.018 25.168,176.408 23.204 C 175.965 21.778,175.162 18.711,174.528 16.026 C 174.429 15.604,174.142 14.480,173.891 13.529 C 173.304 11.298,173.312 11.178,174.095 10.428 C 174.672 9.875,174.671 9.337,174.094 9.473 C 174.034 9.487,173.270 9.708,172.396 9.963 M221.156 12.622 C 221.082 12.813,221.183 13.146,221.378 13.362 C 221.954 13.998,221.812 14.735,220.303 18.947 C 217.861 25.761,217.666 26.125,216.462 26.125 C 215.771 26.125,216.037 26.578,216.914 26.897 C 222.758 29.022,223.260 29.210,224.431 29.717 C 225.663 30.250,226.004 30.171,226.645 29.203 C 227.550 27.836,227.379 27.243,226.319 28.071 C 225.263 28.896,224.726 28.833,221.186 27.472 C 219.817 26.946,219.737 26.584,220.523 24.496 C 221.920 20.790,221.592 21.025,224.045 21.970 C 226.048 22.741,226.564 23.127,226.564 23.854 C 226.564 24.866,227.180 24.368,227.749 22.897 C 228.356 21.326,228.245 20.679,227.485 21.366 C 226.839 21.951,226.007 21.836,223.820 20.860 C 223.578 20.752,223.159 20.602,222.887 20.526 C 222.126 20.313,222.303 19.401,223.902 15.313 C 224.232 14.471,224.573 14.493,226.927 15.508 C 227.307 15.673,227.752 15.814,227.915 15.823 C 228.575 15.859,229.508 16.631,229.746 17.339 C 230.103 18.399,230.375 18.373,230.707 17.248 C 231.080 15.987,231.087 15.994,228.821 15.164 C 226.890 14.456,226.583 14.338,225.357 13.835 C 224.995 13.686,224.133 13.382,223.442 13.160 C 222.752 12.938,221.985 12.648,221.738 12.515 C 221.380 12.324,221.262 12.346,221.156 12.622 M149.385 17.538 C 149.271 17.645,148.485 18.104,147.640 18.558 C 145.381 19.771,145.044 20.198,146.346 20.198 C 147.082 20.198,147.764 20.983,148.995 23.248 C 149.560 24.287,150.549 26.050,151.191 27.166 C 152.774 29.913,152.632 31.510,150.661 33.137 C 148.251 35.128,146.202 34.398,144.254 30.854 C 143.787 30.004,142.802 28.222,142.066 26.894 C 140.585 24.221,140.523 23.952,141.179 23.031 C 141.819 22.131,141.228 22.161,139.627 23.110 C 138.963 23.503,138.049 24.019,137.596 24.257 C 136.599 24.779,136.469 25.349,137.393 25.146 C 138.049 25.002,139.015 25.725,139.433 26.674 C 139.539 26.915,139.723 27.261,139.842 27.442 C 140.180 27.958,142.103 31.415,142.591 32.384 C 144.903 36.983,150.702 36.734,152.701 31.950 C 153.022 31.180,153.511 31.084,153.763 31.740 C 153.944 32.211,154.382 32.124,155.776 31.339 C 157.359 30.448,157.532 30.077,156.364 30.077 C 155.237 30.077,155.295 30.155,152.167 24.487 C 149.652 19.930,149.158 18.683,149.726 18.332 C 149.986 18.171,150.023 17.344,149.769 17.344 C 149.673 17.344,149.500 17.431,149.385 17.538 M241.209 21.213 C 241.133 21.289,241.217 21.634,241.396 21.979 C 241.793 22.747,241.537 23.489,240.205 25.422 C 239.068 27.071,236.798 30.567,236.683 30.845 C 236.154 32.125,234.826 33.396,234.086 33.330 C 233.655 33.292,233.267 33.362,233.224 33.486 C 233.157 33.681,235.476 35.348,236.941 36.159 C 237.570 36.506,237.883 36.064,237.392 35.521 C 236.876 34.952,237.150 34.046,238.415 32.127 C 239.021 31.207,239.517 30.370,239.517 30.266 C 239.517 29.913,240.283 30.091,240.863 30.579 C 241.998 31.534,242.151 32.168,242.155 35.939 C 242.158 39.705,242.131 39.592,243.249 40.413 C 244.641 41.434,245.382 41.393,244.688 40.334 C 244.425 39.933,244.337 38.967,244.285 35.918 L 244.218 32.016 244.838 32.140 C 246.887 32.550,249.121 30.321,248.906 28.081 C 248.742 26.373,247.726 25.218,244.442 23.005 C 241.496 21.020,241.436 20.987,241.209 21.213 M245.393 24.734 C 249.037 27.720,245.368 32.666,241.526 29.947 C 240.380 29.136,240.390 28.984,241.714 27.041 C 242.317 26.156,242.810 25.387,242.810 25.331 C 242.810 25.031,243.817 23.930,244.091 23.930 C 244.267 23.930,244.853 24.292,245.393 24.734 M187.925 31.755 C 179.190 32.325,168.723 34.694,163.247 37.340 C 162.768 37.571,162.279 37.761,162.161 37.761 C 161.252 37.761,152.848 42.374,149.172 44.891 C 104.253 75.643,104.505 142.006,149.657 172.573 C 151.249 173.651,152.612 174.533,152.686 174.533 C 152.760 174.533,153.339 174.865,153.972 175.270 C 158.415 178.113,167.095 181.648,173.546 183.243 C 209.870 192.226,247.008 173.694,262.010 139.098 C 264.043 134.409,265.951 128.255,266.734 123.854 C 266.849 123.208,267.002 122.495,267.074 122.269 C 268.338 118.286,268.521 105.177,267.427 97.036 C 266.904 93.144,264.985 85.582,263.667 82.217 C 258.011 67.775,250.643 57.420,239.816 48.694 C 230.542 41.220,218.497 35.441,207.837 33.350 C 203.484 32.496,202.267 32.329,196.926 31.848 C 194.613 31.640,190.360 31.596,187.925 31.755 M200.439 34.241 C 203.460 34.606,208.381 35.537,210.538 36.153 C 214.540 37.295,216.174 37.805,217.124 38.208 C 217.667 38.438,219.050 38.985,220.198 39.424 C 222.394 40.264,227.892 43.013,229.331 43.990 C 229.797 44.307,230.253 44.566,230.344 44.566 C 230.487 44.566,232.073 45.613,234.688 47.434 C 236.554 48.732,239.050 50.693,240.169 51.739 C 241.966 53.419,241.868 53.458,235.829 53.455 C 179.127 53.426,143.191 53.302,142.926 53.136 C 142.498 52.866,143.004 52.325,145.884 49.968 C 150.652 46.066,155.565 43.036,161.471 40.356 C 163.783 39.307,164.748 38.922,167.179 38.079 C 167.783 37.870,168.597 37.566,168.988 37.405 C 169.380 37.243,170.565 36.899,171.623 36.641 C 172.680 36.383,173.724 36.078,173.942 35.964 C 174.159 35.850,175.098 35.623,176.027 35.460 C 176.957 35.297,178.606 35.006,179.693 34.814 C 185.268 33.828,194.835 33.564,200.439 34.241 M258.733 37.164 C 256.812 38.252,255.917 41.239,256.827 43.521 C 257.985 46.423,257.037 49.396,254.954 49.396 C 252.630 49.396,251.107 46.642,252.250 44.509 C 253.051 43.015,252.271 43.042,250.853 44.557 C 249.694 45.797,249.631 46.020,250.351 46.347 C 250.634 46.477,251.041 46.978,251.254 47.461 C 252.356 49.960,254.458 51.077,256.767 50.392 C 259.266 49.650,260.222 47.368,259.485 43.908 C 258.677 40.118,258.697 39.197,259.609 38.285 C 261.561 36.333,264.767 39.412,263.515 42.036 C 262.903 43.319,263.419 43.355,264.732 42.121 L 265.907 41.017 265.226 40.351 C 264.851 39.984,264.544 39.566,264.544 39.421 C 264.544 39.040,263.475 37.908,262.483 37.239 C 261.381 36.496,259.963 36.467,258.733 37.164 M116.098 43.640 C 111.515 49.150,111.567 49.061,113.077 48.820 C 113.806 48.703,114.098 48.770,114.669 49.186 C 115.296 49.643,119.157 52.846,119.429 53.135 C 119.490 53.199,120.316 53.889,121.266 54.668 C 123.129 56.196,123.415 56.636,123.146 57.572 C 122.751 58.950,123.820 58.024,126.784 54.421 C 130.214 50.250,130.244 50.187,129.378 48.963 C 128.469 47.677,128.203 47.803,128.347 49.451 L 128.467 50.823 126.890 52.744 C 126.022 53.801,125.165 54.665,124.984 54.665 C 124.612 54.665,120.845 51.641,120.650 51.185 C 120.372 50.535,123.235 47.528,124.106 47.554 C 125.500 47.597,125.383 47.047,123.733 45.797 C 122.608 44.944,122.016 44.975,122.490 45.860 C 122.804 46.447,122.609 46.836,121.021 48.793 C 119.549 50.607,119.802 50.620,117.378 48.595 C 114.766 46.413,114.821 46.698,116.588 44.502 C 118.292 42.385,118.734 42.060,119.641 42.259 C 120.458 42.439,120.638 42.109,120.026 41.552 C 118.756 40.396,118.829 40.357,116.098 43.640 M272.369 49.549 C 272.291 49.626,272.228 50.061,272.228 50.516 C 272.228 51.451,271.799 51.867,268.606 54.023 C 267.640 54.676,266.800 55.264,266.740 55.331 C 266.679 55.397,265.720 56.065,264.609 56.815 C 262.577 58.185,262.023 58.371,261.234 57.949 C 260.327 57.464,260.564 58.371,261.809 60.146 C 263.118 62.015,263.557 62.241,263.557 61.048 C 263.557 60.298,263.882 59.942,265.752 58.648 C 266.235 58.313,268.073 57.034,269.836 55.805 C 272.934 53.645,274.203 53.033,274.520 53.545 C 274.669 53.787,275.521 53.892,275.521 53.669 C 275.521 53.108,272.612 49.305,272.369 49.549 M183.864 55.799 C 192.678 55.817,206.533 55.809,214.651 55.782 C 222.770 55.755,229.502 55.789,229.613 55.857 C 229.723 55.925,232.788 55.989,236.424 56.000 C 242.023 56.015,243.085 56.069,243.367 56.351 C 243.727 56.712,243.729 52.906,243.335 125.576 C 243.147 160.312,243.236 157.850,242.079 160.243 C 241.299 161.855,238.703 164.273,236.773 165.184 C 233.110 166.913,226.461 168.795,221.954 169.378 C 220.565 169.557,219.182 169.754,218.880 169.814 C 218.578 169.875,216.982 170.019,215.333 170.134 C 202.115 171.059,195.859 173.640,193.092 179.312 C 192.160 181.222,192.281 181.230,190.619 179.132 C 188.863 176.914,184.040 173.436,182.721 173.436 C 182.616 173.436,182.144 173.239,181.672 172.999 C 181.201 172.758,180.464 172.501,180.034 172.426 C 179.605 172.352,178.266 172.063,177.058 171.785 C 175.851 171.506,173.727 171.172,172.338 171.043 C 162.384 170.111,155.732 169.312,153.677 168.800 C 150.885 168.104,149.263 167.514,146.984 166.367 C 144.251 164.991,142.625 162.958,141.402 159.385 C 140.995 158.198,140.710 152.064,140.834 147.201 C 140.897 144.786,141.008 136.586,141.082 128.979 C 141.228 114.046,141.246 111.843,141.491 78.485 C 141.594 64.359,141.732 56.213,141.871 56.041 C 142.116 55.737,149.472 55.611,161.142 55.710 C 164.824 55.742,175.049 55.782,183.864 55.799 M139.168 70.111 C 139.156 77.373,139.023 96.948,138.870 113.611 C 138.718 130.274,138.621 147.538,138.655 151.976 C 138.724 161.054,138.771 160.831,137.172 159.111 C 136.233 158.101,132.494 153.474,131.894 152.580 C 131.691 152.278,131.034 151.339,130.433 150.494 C 128.378 147.602,125.415 142.140,123.824 138.310 C 121.947 133.788,121.474 132.514,121.188 131.209 C 121.060 130.625,120.806 129.790,120.624 129.353 C 120.441 128.917,120.141 127.864,119.956 127.013 C 119.770 126.162,119.477 125.094,119.305 124.639 C 119.132 124.184,118.990 123.443,118.989 122.992 C 118.989 122.542,118.792 121.186,118.551 119.978 C 115.570 105.008,119.531 84.666,128.279 70.033 C 131.777 64.182,137.967 56.439,138.871 56.786 C 139.142 56.890,139.185 58.790,139.168 70.111 M145.846 57.519 C 143.285 57.659,143.481 57.252,143.436 62.529 C 143.415 65.026,143.342 71.169,143.274 76.180 C 143.207 81.191,143.100 91.021,143.036 98.024 C 142.973 105.027,142.868 116.685,142.802 123.930 C 142.736 131.175,142.625 139.127,142.554 141.603 C 142.403 146.951,142.401 145.740,142.570 151.482 C 142.801 159.341,143.255 161.093,145.631 163.283 C 147.289 164.811,152.867 167.289,154.649 167.289 C 154.985 167.289,155.818 167.429,156.500 167.601 C 157.181 167.773,158.825 168.024,160.154 168.160 C 161.482 168.295,163.211 168.512,163.996 168.641 C 165.551 168.898,168.125 169.136,172.887 169.465 C 174.577 169.582,176.306 169.782,176.727 169.910 C 177.149 170.038,177.791 170.143,178.154 170.144 C 180.977 170.147,188.468 173.922,190.568 176.400 C 191.911 177.985,191.924 177.986,192.979 176.587 C 195.383 173.404,198.883 171.278,203.183 170.389 C 203.908 170.239,204.802 170.024,205.171 169.911 C 207.031 169.343,209.864 168.925,213.964 168.616 C 221.717 168.031,226.173 167.266,230.813 165.724 C 237.741 163.422,240.647 161.040,241.257 157.163 C 241.679 154.471,241.955 58.333,241.541 57.919 C 241.141 57.519,152.640 57.149,145.846 57.519 M104.734 59.907 C 103.697 62.020,103.628 62.897,104.548 62.253 C 105.288 61.735,105.743 61.828,108.012 62.966 C 110.580 64.255,110.549 64.026,108.681 67.913 C 106.924 71.569,107.160 71.427,104.813 70.229 C 102.475 69.035,102.074 68.710,101.901 67.866 C 101.668 66.725,101.409 66.943,100.278 69.235 C 99.103 71.617,99.097 71.820,100.218 71.285 C 101.015 70.905,101.139 70.922,102.744 71.632 C 108.915 74.360,112.184 76.324,112.184 77.303 C 112.184 78.522,112.635 78.126,113.731 75.942 C 114.858 73.695,114.963 72.730,113.984 73.617 C 113.344 74.195,112.542 74.058,110.467 73.016 C 107.764 71.659,107.828 71.911,109.370 68.714 C 110.098 67.206,110.780 65.747,110.887 65.472 C 111.208 64.642,111.604 64.689,113.873 65.828 C 116.269 67.030,116.502 67.225,116.611 68.119 C 116.736 69.150,117.085 68.865,118.056 66.941 C 119.274 64.527,119.309 63.962,118.195 64.692 C 117.465 65.170,117.256 65.093,111.416 62.192 C 106.846 59.922,106.469 59.662,106.257 58.635 C 106.053 57.647,105.694 57.946,104.734 59.907 M248.079 59.660 C 250.042 61.801,251.042 63.159,254.699 68.645 C 256.391 71.184,257.912 74.121,260.592 80.022 C 261.018 80.960,261.794 83.078,262.564 85.401 C 263.047 86.859,264.131 91.242,264.981 95.170 C 266.208 100.843,266.348 116.576,265.209 120.746 C 265.094 121.169,264.849 122.404,264.665 123.491 C 264.293 125.694,263.346 129.448,262.866 130.626 C 262.694 131.048,262.419 131.937,262.255 132.602 C 262.091 133.266,261.593 134.649,261.149 135.675 C 260.704 136.701,260.212 137.887,260.056 138.310 C 258.432 142.705,254.046 150.090,250.212 154.885 C 245.458 160.831,244.825 161.290,245.234 158.491 C 245.620 155.856,246.085 91.415,245.891 67.348 C 245.809 57.086,245.787 57.160,248.079 59.660 M221.173 58.597 C 221.263 58.743,215.042 65.135,199.057 81.323 C 193.501 86.950,193.696 86.883,194.170 83.019 C 194.291 82.032,195.854 80.132,196.544 80.132 C 196.925 80.132,199.999 78.129,200.458 77.583 C 202.338 75.341,202.864 71.712,201.577 69.854 C 200.735 68.637,200.847 68.235,202.556 66.359 C 203.022 65.847,203.847 64.919,204.391 64.296 C 204.934 63.673,205.974 62.560,206.701 61.823 C 207.429 61.086,208.334 60.088,208.712 59.605 C 209.380 58.753,209.449 58.723,211.012 58.602 C 213.445 58.413,221.058 58.410,221.173 58.597 M181.065 63.391 C 185.832 68.235,185.993 68.444,185.371 68.960 C 183.748 70.306,183.317 73.638,184.464 75.972 C 185.035 77.136,187.636 79.473,188.359 79.473 C 188.746 79.473,191.428 82.313,191.534 82.835 C 191.853 84.400,191.886 86.059,191.600 86.059 C 191.311 86.059,185.956 80.724,175.183 69.705 C 168.117 62.478,166.437 60.796,165.458 59.968 C 163.904 58.653,164.131 58.595,170.633 58.624 L 176.400 58.650 181.065 63.391 M186.483 59.578 C 186.765 59.955,187.070 60.506,187.160 60.802 C 187.251 61.098,187.707 62.066,188.174 62.953 C 190.553 67.471,188.617 67.025,184.916 62.202 C 183.047 59.766,183.036 59.748,183.168 59.404 C 183.517 58.494,185.760 58.612,186.483 59.578 M191.578 58.959 C 192.290 59.100,192.359 59.556,192.191 62.963 C 192.009 66.660,191.829 66.829,190.573 64.488 C 190.135 63.672,189.632 62.832,189.455 62.620 C 187.225 59.959,188.196 58.284,191.578 58.959 M181.721 59.844 C 182.252 60.398,182.853 61.120,183.056 61.448 C 183.457 62.097,184.861 63.799,186.334 65.426 C 187.253 66.440,187.530 67.179,186.992 67.179 C 186.841 67.178,185.977 66.425,185.071 65.505 C 184.166 64.585,182.964 63.369,182.400 62.802 C 181.473 61.869,180.184 60.300,179.710 59.525 C 179.514 59.205,179.898 58.846,180.444 58.840 C 180.615 58.838,181.190 59.290,181.721 59.844 M198.024 59.354 C 198.022 60.371,195.155 65.203,194.554 65.203 C 193.642 65.203,193.862 60.291,194.817 59.336 C 195.270 58.883,198.025 58.899,198.024 59.354 M202.359 59.017 C 203.005 59.427,198.019 65.856,197.276 65.571 C 196.835 65.401,196.996 65.031,198.188 63.474 C 198.616 62.916,199.095 62.162,199.253 61.800 C 199.565 61.083,201.565 58.834,201.887 58.840 C 201.996 58.842,202.209 58.921,202.359 59.017 M206.147 59.171 C 206.147 59.235,205.579 59.914,204.885 60.681 C 204.190 61.448,203.398 62.346,203.124 62.675 C 202.542 63.375,201.847 63.102,202.109 62.275 C 202.515 60.996,206.147 58.204,206.147 59.171 M278.814 61.204 C 277.418 61.894,277.292 62.210,278.375 62.311 C 279.345 62.400,279.952 62.966,280.683 64.459 C 281.387 65.898,281.280 66.318,280.075 66.844 C 279.563 67.068,278.205 67.691,277.058 68.229 C 275.045 69.174,273.520 69.877,271.269 70.899 C 270.146 71.410,269.274 71.371,268.839 70.791 C 268.096 69.800,268.081 70.924,268.817 72.495 C 269.244 73.407,269.594 74.248,269.594 74.364 C 269.594 75.038,270.452 75.348,270.584 74.723 C 270.851 73.466,270.837 73.477,274.533 71.771 C 275.862 71.159,277.450 70.423,278.064 70.137 C 282.539 68.048,282.340 68.086,282.863 69.234 C 283.998 71.720,284.061 72.138,283.425 72.947 C 282.475 74.154,283.071 74.310,284.787 73.303 C 285.426 72.928,285.970 72.602,285.996 72.580 C 286.021 72.557,285.700 72.155,285.282 71.685 C 284.864 71.216,284.523 70.758,284.523 70.668 C 284.523 70.578,284.189 69.781,283.782 68.896 C 283.375 68.012,282.819 66.795,282.546 66.191 C 282.273 65.587,281.762 64.465,281.412 63.697 C 281.061 62.930,280.700 61.949,280.611 61.518 C 280.402 60.511,280.266 60.487,278.814 61.204 M201.098 64.950 C 201.098 65.172,200.902 65.532,200.663 65.748 C 200.055 66.298,199.764 65.608,200.337 64.975 C 200.826 64.435,201.098 64.426,201.098 64.950 M190.999 68.701 C 190.999 69.112,190.198 69.815,189.402 70.102 C 188.723 70.347,187.812 69.167,188.400 68.803 C 189.323 68.233,190.999 68.167,190.999 68.701 M195.940 69.055 L 197.204 69.614 196.698 70.153 C 196.029 70.864,195.793 70.835,194.828 69.925 C 194.150 69.286,194.061 69.104,194.290 68.827 C 194.629 68.420,194.447 68.395,195.940 69.055 M187.414 69.984 C 188.128 70.438,187.997 72.106,187.228 72.350 C 186.656 72.532,186.396 72.149,186.392 71.120 C 186.388 70.098,186.827 69.610,187.414 69.984 M194.057 70.611 C 194.718 71.453,194.629 72.080,193.736 72.864 C 192.600 73.861,191.945 73.639,191.541 72.119 C 191.058 70.298,192.928 69.177,194.057 70.611 M199.658 70.521 C 200.462 71.668,199.588 74.121,198.773 73.007 C 198.227 72.260,198.485 70.033,199.117 70.033 C 199.227 70.033,199.470 70.252,199.658 70.521 M190.639 73.202 C 191.654 74.159,191.647 74.660,190.608 75.484 C 189.220 76.583,187.996 75.158,188.762 73.334 C 189.218 72.248,189.600 72.221,190.639 73.202 M185.620 73.436 C 185.620 73.657,185.497 73.879,185.346 73.930 C 185.172 73.988,185.071 73.807,185.071 73.436 C 185.071 73.065,185.172 72.884,185.346 72.942 C 185.497 72.992,185.620 73.214,185.620 73.436 M196.745 73.689 C 197.314 74.204,197.244 74.747,196.502 75.573 C 195.616 76.559,195.182 76.195,195.598 74.814 C 195.753 74.298,195.915 73.751,195.958 73.600 C 196.061 73.232,196.264 73.255,196.745 73.689 M188.039 75.686 C 188.688 76.424,188.718 76.869,188.153 77.380 C 187.559 77.918,187.119 77.678,186.810 76.647 C 186.345 75.094,187.039 74.551,188.039 75.686 M193.402 76.235 C 194.197 77.084,194.194 77.063,193.617 77.797 C 192.722 78.935,191.658 78.277,191.658 76.585 C 191.658 75.238,192.339 75.101,193.402 76.235 M198.422 77.223 C 198.333 77.691,197.366 77.889,197.366 77.439 C 197.366 77.019,197.580 76.839,198.077 76.839 C 198.357 76.839,198.471 76.966,198.422 77.223 M190.319 78.242 C 190.877 78.837,190.643 79.158,189.803 78.947 C 189.276 78.814,188.927 78.269,189.145 77.917 C 189.358 77.572,189.806 77.697,190.319 78.242 M195.335 78.409 C 195.715 78.788,195.259 79.473,194.627 79.473 C 193.929 79.473,193.797 79.211,194.204 78.631 C 194.574 78.102,194.954 78.028,195.335 78.409 M95.822 80.972 C 95.907 81.471,95.880 82.202,95.763 82.597 C 95.646 82.992,95.432 83.908,95.287 84.632 C 95.143 85.357,94.926 86.345,94.806 86.828 C 94.685 87.311,94.501 88.101,94.397 88.584 C 94.293 89.067,94.106 89.930,93.983 90.502 C 93.859 91.073,93.597 91.786,93.400 92.086 C 92.801 93.002,92.954 93.115,95.692 93.780 C 96.252 93.916,96.186 93.347,95.576 92.782 C 94.874 92.131,94.782 90.605,95.349 89.023 C 95.708 88.022,95.964 87.986,98.463 88.579 C 99.188 88.751,101.164 89.205,102.854 89.588 C 104.544 89.971,106.256 90.362,106.657 90.457 C 107.569 90.674,108.150 91.188,108.341 91.948 L 108.489 92.536 108.910 92.017 C 109.141 91.732,109.330 91.284,109.330 91.021 C 109.330 90.758,109.482 89.960,109.668 89.248 C 110.116 87.528,109.957 87.115,109.147 87.890 C 108.490 88.520,107.897 88.605,106.694 88.243 C 106.273 88.116,105.483 87.924,104.940 87.817 C 104.396 87.710,103.310 87.470,102.525 87.283 C 101.740 87.096,100.357 86.788,99.451 86.598 C 95.746 85.820,95.902 85.967,96.471 83.780 C 96.913 82.085,97.120 81.781,98.169 81.287 C 99.312 80.750,98.900 80.399,96.883 80.190 L 95.669 80.065 95.822 80.972 M287.583 81.833 C 287.402 82.392,286.532 83.456,284.877 85.145 C 282.181 87.894,281.827 88.140,280.239 88.371 C 279.636 88.459,278.996 88.604,278.814 88.694 C 277.634 89.282,275.956 89.174,275.297 88.469 C 274.415 87.525,274.275 87.963,274.754 90.168 C 274.958 91.108,275.164 92.088,275.212 92.347 C 275.353 93.115,275.952 93.181,276.100 92.444 C 276.255 91.665,277.003 91.276,279.254 90.802 C 282.802 90.056,281.974 89.910,288.756 92.474 C 289.092 92.601,289.600 93.002,289.885 93.366 C 290.699 94.407,291.164 94.071,290.762 92.734 C 290.590 92.164,290.450 91.414,290.450 91.067 C 290.450 90.050,289.637 89.990,289.289 90.981 C 289.181 91.289,287.759 91.168,287.033 90.789 C 286.679 90.604,286.222 90.452,286.017 90.451 C 285.813 90.451,285.585 90.351,285.510 90.231 C 285.436 90.110,285.146 90.011,284.866 90.011 C 283.904 90.011,283.716 89.422,284.434 88.658 C 287.236 85.676,287.932 85.210,288.500 85.933 C 289.117 86.717,289.439 86.656,289.279 85.785 C 289.140 85.029,288.565 82.334,288.365 81.504 C 288.189 80.774,287.885 80.902,287.583 81.833 M147.578 84.809 C 149.182 86.416,152.137 89.404,154.145 91.450 C 156.153 93.496,160.378 97.739,163.534 100.878 C 170.153 107.463,170.540 107.932,170.147 108.881 C 169.816 109.680,144.506 135.070,144.157 134.953 C 143.930 134.877,143.908 113.638,144.119 99.451 C 144.151 97.338,144.190 92.522,144.207 88.749 C 144.226 84.490,144.318 81.888,144.450 81.888 C 144.567 81.888,145.974 83.202,147.578 84.809 M240.617 86.883 C 240.625 102.820,240.580 132.044,240.546 133.132 C 240.504 134.471,240.240 134.835,239.707 134.290 C 239.542 134.121,236.940 131.424,233.925 128.297 C 230.910 125.171,225.822 119.987,222.619 116.777 C 215.634 109.779,214.709 108.793,214.709 108.349 C 214.709 108.162,216.442 106.256,218.559 104.114 C 220.676 101.972,226.382 96.201,231.237 91.290 C 236.093 86.379,240.189 82.353,240.340 82.344 C 240.551 82.331,240.615 83.377,240.617 86.883 M183.715 87.708 C 187.406 88.360,190.161 89.636,191.168 91.160 L 191.767 92.065 191.709 103.607 C 191.659 113.686,191.464 119.177,191.096 120.911 C 190.954 121.577,190.583 121.533,189.457 120.718 C 186.899 118.864,180.737 117.739,178.214 118.664 C 177.243 119.020,177.252 119.253,177.480 100.220 C 177.510 97.684,177.551 93.908,177.571 91.829 L 177.607 88.049 178.211 87.722 C 178.995 87.296,181.355 87.290,183.715 87.708 M206.425 88.016 C 207.440 88.401,207.559 92.847,207.167 115.520 C 207.114 118.569,207.193 118.454,205.393 118.115 C 202.778 117.621,198.423 118.818,195.035 120.961 C 193.680 121.818,193.439 120.590,193.284 112.026 C 193.171 105.801,193.330 99.837,193.773 93.670 C 193.939 91.356,194.287 90.816,196.189 89.915 C 198.950 88.608,205.020 87.482,206.425 88.016 M176.219 98.482 C 176.240 103.664,176.201 110.405,176.132 113.463 L 176.006 119.022 174.780 120.535 C 172.963 122.777,173.110 124.474,173.322 103.748 C 173.455 90.631,173.318 91.793,174.967 89.821 C 176.192 88.356,176.177 88.252,176.219 98.482 M210.095 95.774 C 210.100 99.997,210.634 100.110,211.116 95.989 C 211.387 93.671,211.635 94.669,211.632 98.066 C 211.629 101.347,211.429 102.781,211.133 101.649 C 210.858 100.594,210.068 101.522,210.143 102.813 C 210.215 104.055,211.001 104.555,211.157 103.458 C 211.195 103.186,211.324 102.964,211.443 102.964 C 211.687 102.964,211.633 114.575,211.389 114.726 C 211.117 114.894,210.986 114.156,211.117 113.196 C 211.269 112.088,210.992 111.781,210.414 112.420 C 210.068 112.801,210.010 113.271,210.000 115.762 C 209.993 117.541,209.904 118.661,209.769 118.661 C 209.631 118.661,209.549 117.219,209.548 114.780 C 209.546 112.645,209.479 110.832,209.397 110.751 C 209.023 110.377,208.779 111.025,208.750 112.472 L 208.719 114.050 208.540 112.514 C 208.254 110.056,208.525 106.747,209.042 106.385 C 209.748 105.890,209.720 100.546,209.008 99.787 C 208.355 99.092,208.506 95.134,209.237 93.769 C 209.470 93.336,209.661 92.782,209.663 92.539 C 209.666 92.173,209.703 92.153,209.879 92.426 C 209.996 92.607,210.094 94.114,210.095 95.774 M179.418 93.442 C 178.327 93.912,179.294 94.706,181.633 95.260 C 185.018 96.062,189.570 97.860,190.008 98.568 C 190.172 98.833,190.999 98.873,190.999 98.615 C 190.999 97.820,188.171 96.130,184.620 94.803 C 181.666 93.700,179.895 93.237,179.418 93.442 M202.195 93.848 C 201.531 94.130,200.531 94.522,199.972 94.718 C 197.817 95.477,194.670 97.722,195.124 98.176 C 195.300 98.352,195.773 98.179,196.860 97.541 C 198.487 96.587,199.770 96.049,202.634 95.118 C 204.317 94.571,204.501 94.458,204.501 93.963 C 204.501 93.219,203.762 93.182,202.195 93.848 M200.549 102.666 C 197.534 103.866,194.683 105.492,194.428 106.157 C 194.272 106.565,194.846 106.833,195.228 106.530 C 196.036 105.891,197.813 105.118,200.631 104.180 C 204.305 102.956,205.299 102.250,204.186 101.654 C 203.658 101.372,204.124 101.242,200.549 102.666 M179.702 102.161 C 178.922 102.732,179.418 103.622,180.520 103.626 C 182.813 103.636,186.465 104.882,188.958 106.506 C 190.330 107.399,190.980 107.481,190.566 106.708 C 189.569 104.845,180.959 101.242,179.702 102.161 M210.099 108.765 C 210.099 109.801,210.185 110.648,210.291 110.648 C 211.077 110.648,211.261 107.105,210.483 106.957 C 210.141 106.891,210.099 107.091,210.099 108.765 M98.497 109.073 C 97.725 109.926,98.257 111.306,99.357 111.306 C 99.981 111.306,100.768 110.598,100.768 110.038 C 100.768 108.864,99.265 108.225,98.497 109.073 M283.767 109.160 C 282.750 110.611,284.602 112.105,285.859 110.848 C 286.194 110.513,286.278 110.237,286.174 109.819 C 285.883 108.660,284.401 108.254,283.767 109.160 M201.756 110.400 C 197.916 111.664,193.582 114.354,194.487 114.914 C 194.595 114.980,195.250 114.694,195.943 114.277 C 197.745 113.191,201.833 111.745,203.099 111.745 C 204.318 111.745,205.100 110.486,204.186 109.997 C 203.670 109.721,203.975 109.670,201.756 110.400 M179.394 111.159 C 178.748 111.938,179.471 112.441,181.668 112.742 C 184.245 113.096,187.751 114.152,189.572 115.124 C 190.156 115.435,190.239 115.437,190.303 115.141 C 190.612 113.707,180.379 109.972,179.394 111.159 M211.620 118.290 C 211.597 120.479,211.290 120.982,211.089 119.160 C 211.000 118.347,210.990 117.430,211.068 117.120 C 211.320 116.115,211.636 116.784,211.620 118.290 M206.870 119.923 C 207.857 120.475,209.366 122.158,209.477 122.832 C 209.548 123.258,209.388 123.276,204.281 123.416 C 195.197 123.666,194.512 123.806,194.512 125.418 C 194.512 126.379,193.132 127.190,192.034 126.876 C 191.285 126.661,190.577 125.856,190.567 125.208 C 190.549 124.049,190.482 124.040,182.215 124.040 C 174.290 124.040,174.164 124.024,174.518 123.092 C 175.650 120.116,179.595 119.006,184.742 120.215 C 188.001 120.981,188.221 121.079,190.181 122.662 C 192.165 124.263,192.418 124.307,193.554 123.253 C 195.121 121.800,199.760 119.832,202.744 119.355 C 204.021 119.152,205.970 119.419,206.870 119.923 M275.371 125.626 C 275.245 125.901,274.968 126.817,274.755 127.662 C 274.543 128.507,274.320 129.372,274.261 129.583 C 274.110 130.120,274.697 130.075,275.209 129.510 C 275.650 129.022,276.361 129.019,277.936 129.497 C 278.359 129.625,279.180 129.851,279.761 129.998 C 281.051 130.326,281.272 130.681,280.907 131.833 C 280.754 132.316,280.351 133.699,280.012 134.907 C 279.090 138.193,278.979 138.280,276.729 137.475 C 276.367 137.345,275.643 137.116,275.121 136.965 C 274.124 136.678,273.326 135.896,273.326 135.206 C 273.326 133.998,272.557 135.024,272.151 136.775 C 271.969 137.558,271.711 138.488,271.577 138.839 C 271.227 139.760,271.664 140.153,272.219 139.418 C 272.744 138.724,273.526 138.740,276.095 139.500 C 277.168 139.817,278.589 140.231,279.254 140.418 C 279.918 140.606,280.708 140.842,281.010 140.943 C 281.312 141.043,282.178 141.302,282.936 141.517 C 284.521 141.967,285.181 142.484,285.181 143.274 C 285.181 144.544,285.896 143.720,286.441 141.822 C 287.390 138.522,287.375 138.341,286.239 139.297 C 285.431 139.977,285.512 139.979,282.787 139.214 C 279.747 138.361,279.866 138.573,280.798 135.675 C 281.068 134.837,281.629 132.778,281.756 132.162 C 282.026 130.853,282.315 130.732,283.929 131.254 C 284.729 131.512,285.539 131.723,285.730 131.723 C 286.551 131.723,287.829 132.614,287.962 133.279 C 288.192 134.430,288.710 133.960,289.172 132.182 C 289.404 131.288,289.688 130.381,289.802 130.166 C 290.307 129.223,289.698 128.643,289.090 129.488 C 288.548 130.241,287.635 130.171,284.413 129.128 C 283.729 128.907,281.637 128.299,279.363 127.661 C 277.020 127.003,276.411 126.670,276.222 125.941 C 276.006 125.105,275.668 124.981,275.371 125.626 M101.127 126.682 C 97.069 128.224,94.913 132.154,95.925 136.167 C 98.061 144.647,109.748 144.314,111.335 135.729 C 112.403 129.954,106.436 124.666,101.127 126.682 M106.367 128.734 C 111.349 130.087,111.987 135.795,107.472 138.631 C 102.503 141.752,96.597 139.721,96.597 134.892 C 96.597 130.973,102.022 127.553,106.367 128.734 M198.575 135.680 C 204.923 142.037,204.816 141.844,201.976 141.811 C 199.607 141.783,199.561 141.789,199.561 142.150 C 199.561 142.331,200.055 143.092,200.659 143.841 C 202.302 145.880,202.238 145.993,199.451 145.993 C 196.749 145.993,196.754 146.000,197.900 143.943 C 199.078 141.828,199.000 141.783,193.961 141.663 C 188.677 141.536,188.529 141.630,190.193 144.061 C 191.494 145.961,191.464 145.993,188.346 145.993 C 185.281 145.993,185.305 146.026,186.937 144.060 C 188.867 141.735,188.980 141.822,183.864 141.714 C 181.432 141.663,181.120 141.629,181.120 141.417 C 181.120 141.077,192.201 129.960,192.537 129.964 C 192.719 129.966,195.436 132.538,198.575 135.680 M185.730 143.257 C 185.730 144.050,182.516 146.471,182.404 145.762 C 182.386 145.648,182.361 145.457,182.349 145.338 C 182.316 145.014,184.903 142.932,185.346 142.925 C 185.557 142.922,185.730 143.072,185.730 143.257 M196.744 143.477 C 196.648 144.044,195.112 145.864,194.652 145.955 C 193.879 146.107,194.738 144.035,195.798 143.188 C 196.294 142.792,196.832 142.956,196.744 143.477 M206.747 143.524 C 206.942 144.221,206.930 150.842,206.732 151.357 C 206.584 151.742,181.542 151.886,180.933 151.505 C 180.771 151.403,180.673 151.134,180.717 150.907 C 180.794 150.508,181.202 150.496,192.942 150.560 C 201.367 150.606,205.174 150.554,205.371 150.390 C 205.568 150.227,205.704 149.092,205.815 146.702 C 205.903 144.803,206.020 143.175,206.074 143.085 C 206.280 142.743,206.584 142.941,206.747 143.524 M178.796 144.207 C 178.861 144.312,178.807 145.556,178.678 146.973 C 178.413 149.872,178.594 150.730,179.768 152.136 L 180.390 152.881 182.786 152.895 L 185.181 152.909 185.141 153.503 C 185.119 153.830,184.956 154.422,184.778 154.820 C 184.601 155.218,184.186 156.284,183.858 157.190 C 183.108 159.254,182.940 159.384,181.023 159.389 C 178.717 159.394,178.832 159.168,178.699 163.932 C 178.569 168.548,178.485 168.928,177.633 168.714 C 177.318 168.635,176.418 168.534,175.632 168.489 C 166.006 167.937,156.531 166.679,156.531 165.952 C 156.531 165.664,178.087 144.093,178.417 144.051 C 178.561 144.033,178.732 144.103,178.796 144.207 M211.556 148.852 C 217.530 154.668,227.113 164.711,227.113 165.156 C 227.113 165.536,226.842 165.660,225.247 166.005 C 222.113 166.685,221.100 166.836,217.453 167.171 C 215.521 167.349,212.731 167.616,211.252 167.765 C 207.794 168.113,208.027 168.398,208.019 163.805 C 208.012 159.310,207.994 159.272,206.032 159.456 C 203.799 159.664,203.752 159.605,201.995 154.310 C 201.651 153.274,201.951 153.138,204.839 153.019 C 208.239 152.878,208.123 153.014,208.123 149.171 C 208.123 145.205,207.837 145.232,211.556 148.852 M115.697 147.489 C 115.697 148.365,114.940 148.989,111.643 150.827 C 110.077 151.700,108.403 152.663,107.922 152.966 C 105.911 154.236,104.929 154.561,104.219 154.194 C 103.338 153.738,103.091 154.073,103.623 155.003 C 103.862 155.421,104.356 156.331,104.721 157.025 C 105.485 158.478,106.037 158.690,106.037 157.530 C 106.037 156.667,106.400 156.338,109.079 154.766 C 111.018 153.629,111.063 153.645,112.330 155.892 C 113.214 157.458,113.234 157.538,112.934 158.256 C 112.347 159.663,112.534 159.700,114.499 158.570 C 116.113 157.642,116.281 157.247,115.102 157.148 C 114.229 157.075,113.778 156.576,112.634 154.421 C 111.977 153.182,112.070 153.010,113.941 151.998 C 114.726 151.573,115.687 151.030,116.077 150.790 C 117.041 150.197,117.201 150.342,118.845 153.301 C 119.530 154.533,119.556 154.822,119.057 155.667 C 118.548 156.528,118.859 156.729,119.829 156.169 C 121.121 155.422,121.097 155.316,118.662 151.037 C 118.420 150.611,117.793 149.499,117.269 148.567 C 116.277 146.801,115.697 146.404,115.697 147.489 M267.398 148.407 C 267.398 148.648,266.767 149.534,265.995 150.375 C 262.570 154.107,262.585 158.588,266.034 161.822 C 270.568 166.075,275.948 164.610,279.228 158.228 C 280.468 155.815,280.419 155.633,278.145 154.242 C 276.107 152.995,276.119 153.009,275.966 151.701 C 275.822 150.467,275.596 150.664,273.970 153.438 C 272.706 155.592,272.499 156.546,273.503 155.584 C 274.356 154.767,275.033 154.841,276.654 155.928 C 278.556 157.202,278.570 158.473,276.701 160.342 C 272.218 164.824,262.390 158.771,264.961 153.111 C 265.847 151.160,267.645 150.046,269.622 150.226 C 271.487 150.395,271.480 149.949,269.602 148.852 C 267.908 147.863,267.398 147.760,267.398 148.407 M200.132 153.845 C 200.265 153.934,200.545 154.550,200.753 155.214 C 200.961 155.878,201.335 156.946,201.584 157.587 C 201.896 158.389,201.967 158.824,201.811 158.980 C 201.309 159.481,200.763 158.748,200.021 156.578 C 199.197 154.170,199.235 153.247,200.132 153.845 M206.467 161.347 C 207.243 162.602,206.559 168.583,205.700 168.052 C 205.463 167.906,205.402 161.521,205.635 161.288 C 205.847 161.075,206.320 161.109,206.467 161.347 M193.490 162.202 C 193.834 162.582,193.809 162.634,193.047 163.135 C 191.392 164.225,191.036 165.266,191.012 169.073 C 190.996 171.629,190.998 171.626,188.552 171.814 C 186.626 171.962,186.405 171.912,184.248 170.837 C 183.076 170.254,183.399 170.143,186.271 170.143 C 189.573 170.143,189.462 170.251,189.462 167.017 C 189.462 163.136,191.803 160.338,193.490 162.202 M194.512 166.957 C 194.512 168.728,194.613 169.526,194.950 170.415 C 195.554 172.002,195.591 171.899,193.694 173.870 C 191.726 175.915,191.865 175.872,190.680 174.808 C 190.175 174.355,189.579 173.880,189.354 173.752 C 188.650 173.349,189.191 172.997,190.518 172.993 C 192.309 172.989,192.262 173.078,192.358 169.484 C 192.460 165.648,192.766 164.654,193.842 164.654 L 194.512 164.654 194.512 166.957 M254.985 167.291 C 253.699 167.472,252.866 168.076,250.192 170.767 C 247.898 173.075,247.423 173.894,248.648 173.428 C 249.520 173.096,250.061 173.516,254.391 177.878 C 258.417 181.935,258.576 182.158,258.183 183.191 C 257.786 184.237,258.551 183.824,260.169 182.122 C 262.056 180.135,262.056 180.133,260.742 180.126 C 259.708 180.120,259.641 180.077,257.903 178.303 L 256.123 176.487 256.795 175.815 C 257.902 174.708,258.630 174.689,263.447 175.634 C 266.144 176.163,265.901 176.197,267.024 175.137 C 267.592 174.600,268.057 174.057,268.057 173.931 C 268.057 173.617,267.443 173.406,267.283 173.665 C 267.073 174.005,265.220 173.900,263.421 173.447 C 262.501 173.215,261.143 172.957,260.402 172.873 C 259.662 172.789,259.056 172.658,259.056 172.583 C 259.056 172.507,259.152 172.109,259.270 171.699 C 259.972 169.253,257.693 166.909,254.985 167.291 M234.907 169.192 C 234.907 169.452,234.189 170.143,233.919 170.143 C 233.775 170.143,233.480 170.339,233.262 170.579 C 233.045 170.819,232.363 171.330,231.747 171.714 C 231.130 172.098,230.132 172.729,229.528 173.117 C 228.924 173.505,227.936 174.070,227.333 174.372 C 226.729 174.674,225.445 175.318,224.479 175.804 C 221.054 177.524,215.853 179.582,213.502 180.147 C 212.777 180.321,211.839 180.604,211.416 180.775 C 210.993 180.946,210.005 181.198,209.221 181.336 C 208.436 181.474,207.300 181.725,206.696 181.894 C 204.647 182.467,197.299 183.367,195.455 183.271 C 193.844 183.187,193.788 182.964,194.835 180.788 C 196.185 177.982,200.502 174.529,202.656 174.534 C 202.825 174.535,203.655 174.345,204.501 174.112 C 206.634 173.526,213.052 172.618,217.124 172.327 C 220.667 172.074,221.296 171.992,225.467 171.238 C 227.972 170.786,228.558 170.639,231.943 169.619 C 233.701 169.089,234.907 168.916,234.907 169.192 M256.207 169.488 C 258.211 170.915,258.217 173.177,256.223 175.172 C 255.528 175.866,255.382 175.790,253.187 173.605 C 250.921 171.348,250.852 171.171,251.866 170.215 C 253.247 168.913,254.990 168.621,256.207 169.488 M198.868 170.117 C 199.080 170.251,198.880 170.440,198.149 170.794 C 197.107 171.298,196.487 171.175,196.487 170.463 C 196.487 169.963,198.226 169.710,198.868 170.117 M133.919 171.365 C 133.919 171.554,134.028 171.912,134.161 172.160 C 134.499 172.792,134.218 173.270,131.618 176.488 C 126.705 182.570,126.551 182.716,125.278 182.509 C 124.126 182.322,124.117 182.312,128.286 185.796 C 133.460 190.118,132.675 189.836,134.754 188.122 C 135.056 187.872,134.986 187.345,134.660 187.421 C 134.554 187.446,134.164 187.585,133.793 187.729 C 132.668 188.168,131.926 187.775,129.144 185.265 C 128.184 184.399,128.233 184.115,129.653 182.327 C 132.054 179.305,131.649 179.454,133.499 180.915 C 135.489 182.489,135.711 182.788,135.545 183.674 C 135.333 184.803,135.901 184.620,136.990 183.208 C 137.844 182.101,138.158 180.744,137.380 181.522 C 136.778 182.125,133.851 180.545,132.776 179.037 C 132.388 178.492,136.232 173.965,136.745 174.363 C 140.133 176.989,140.800 177.718,140.652 178.630 C 140.484 179.662,140.904 179.779,141.630 178.903 C 142.447 177.917,142.425 177.772,141.328 176.917 C 140.815 176.517,139.743 175.644,138.946 174.978 C 138.149 174.311,137.260 173.575,136.970 173.343 C 136.680 173.111,135.951 172.493,135.350 171.971 C 134.163 170.941,133.919 170.837,133.919 171.365 M156.543 171.663 C 157.937 171.894,159.815 172.146,160.714 172.222 C 161.613 172.298,163.831 172.550,165.642 172.784 C 167.453 173.017,170.170 173.304,171.679 173.423 C 179.811 174.061,186.022 176.745,189.166 180.979 C 190.670 183.006,190.548 183.315,188.244 183.315 C 184.907 183.315,176.040 181.906,172.777 180.857 C 172.355 180.721,171.218 180.386,170.252 180.113 C 169.286 179.841,167.854 179.372,167.069 179.073 C 166.284 178.773,165.051 178.312,164.329 178.048 C 163.095 177.596,159.365 175.898,158.397 175.347 C 158.156 175.210,157.560 174.896,157.073 174.651 C 155.226 173.719,152.360 171.828,152.360 171.540 C 152.360 171.123,153.489 171.156,156.543 171.663 M239.212 179.691 C 236.862 181.115,236.664 181.288,237.094 181.554 C 237.270 181.663,237.559 181.667,237.744 181.564 C 238.168 181.327,239.157 182.008,239.579 182.827 C 239.748 183.156,240.792 184.997,241.897 186.919 C 244.235 190.981,244.342 191.491,243.230 193.224 C 241.698 195.612,238.820 196.173,237.298 194.379 C 236.948 193.966,233.370 187.963,233.370 187.788 C 233.370 187.738,233.123 187.306,232.821 186.828 C 232.187 185.823,232.114 184.906,232.637 184.524 C 233.310 184.032,232.846 183.448,232.112 183.863 C 228.605 185.846,227.574 186.803,229.113 186.650 C 229.882 186.573,230.506 187.173,231.545 188.987 C 234.946 194.932,235.474 195.683,236.856 196.538 C 239.116 197.937,243.151 196.179,244.243 193.319 C 244.679 192.178,244.808 192.123,245.445 192.806 L 245.901 193.296 247.045 192.663 C 248.990 191.589,249.237 191.218,248.010 191.218 C 247.262 191.218,246.573 190.645,245.901 189.462 C 245.729 189.160,244.981 187.867,244.237 186.588 C 243.493 185.310,242.817 184.124,242.734 183.954 C 242.652 183.784,242.287 183.150,241.923 182.547 C 240.828 180.730,240.746 180.434,241.143 179.730 C 242.004 178.202,241.682 178.196,239.212 179.691 M149.641 183.033 C 149.570 183.105,149.722 183.503,149.979 183.919 L 150.447 184.676 149.939 185.916 C 149.659 186.599,149.042 187.997,148.568 189.023 C 148.094 190.049,147.306 191.778,146.818 192.865 C 145.636 195.499,145.283 195.968,144.350 196.143 C 142.984 196.399,143.166 196.580,146.213 197.992 C 153.994 201.598,156.990 201.472,159.654 197.426 C 162.785 192.673,160.810 188.014,154.418 185.073 C 153.105 184.469,151.734 183.815,151.372 183.621 C 150.390 183.093,149.786 182.888,149.641 183.033 M154.275 185.869 C 158.741 187.905,159.987 191.191,157.937 195.525 C 156.054 199.506,152.748 200.492,148.847 198.238 C 147.192 197.282,147.283 196.818,150.449 190.121 C 150.991 188.974,151.599 187.640,151.799 187.157 C 152.641 185.126,152.642 185.125,154.275 185.869 M214.599 190.854 C 214.116 191.020,213.326 191.265,212.843 191.400 C 209.183 192.424,208.900 192.590,210.105 193.010 C 210.977 193.314,211.209 193.812,212.184 197.475 C 212.634 199.166,213.239 201.384,213.527 202.405 C 214.168 204.680,214.179 205.265,213.595 206.008 C 212.889 206.905,213.401 206.912,216.653 206.046 C 220.361 205.059,221.548 204.541,222.489 203.499 C 224.391 201.394,223.370 198.292,220.500 197.458 C 219.273 197.101,219.126 196.936,219.603 196.448 C 222.529 193.453,218.892 189.386,214.599 190.854 M171.240 191.760 C 171.240 191.936,171.431 192.183,171.665 192.308 C 172.431 192.718,172.388 193.366,171.246 198.637 C 169.931 204.702,169.844 204.965,169.014 205.395 C 167.873 205.985,168.262 206.310,170.692 206.800 C 171.416 206.947,172.231 207.118,172.503 207.181 C 173.133 207.328,173.137 206.977,172.514 206.135 C 171.950 205.372,171.947 205.397,173.322 199.232 C 173.511 198.386,173.767 197.151,173.892 196.487 C 174.291 194.366,174.728 193.454,175.419 193.303 C 176.070 193.159,176.468 192.577,176.012 192.434 C 175.694 192.333,171.496 191.438,171.344 191.438 C 171.287 191.438,171.240 191.583,171.240 191.760 M217.115 192.017 C 218.457 192.809,218.925 195.154,217.981 196.354 C 217.126 197.442,214.981 198.203,214.583 197.559 C 214.087 196.757,213.020 192.533,213.263 192.332 C 214.126 191.616,216.155 191.450,217.115 192.017 M185.305 194.053 C 184.899 194.318,185.297 194.849,186.040 195.036 C 186.918 195.256,187.039 196.046,187.100 201.943 L 187.157 207.508 186.389 208.152 C 185.283 209.079,186.253 209.341,189.627 209.027 C 190.147 208.978,189.899 208.567,189.165 208.260 C 188.190 207.853,188.145 207.564,188.145 201.729 C 188.145 196.213,188.134 196.235,189.791 198.319 C 191.010 199.852,193.925 203.423,195.280 205.043 C 195.763 205.620,196.646 206.702,197.242 207.445 C 199.018 209.660,199.012 209.677,199.014 202.301 C 199.015 195.327,199.028 195.230,200.042 194.632 C 200.948 194.096,200.517 193.889,198.463 193.872 C 196.910 193.859,196.118 194.142,196.707 194.501 C 197.966 195.267,197.901 195.000,198.061 200.035 C 198.142 202.611,198.175 204.752,198.133 204.794 C 197.874 205.053,195.883 202.763,190.575 196.103 L 188.956 194.072 187.727 194.069 C 187.051 194.068,186.301 194.017,186.059 193.957 C 185.818 193.897,185.478 193.940,185.305 194.053 M219.169 198.598 C 220.789 199.370,221.584 201.816,220.701 203.311 C 220.051 204.410,217.542 205.230,216.774 204.593 C 216.053 203.995,214.756 199.485,215.163 198.994 C 215.770 198.263,218.004 198.042,219.169 198.598 " stroke="none" fill="#152d59" fill-rule="evenodd"></path><path id="path1" d="M184.303 34.153 C 182.854 34.324,180.779 34.622,179.693 34.814 C 178.606 35.006,176.957 35.297,176.027 35.460 C 175.098 35.623,174.159 35.850,173.942 35.964 C 173.724 36.078,172.680 36.383,171.623 36.641 C 170.565 36.899,169.380 37.243,168.988 37.405 C 168.597 37.566,167.783 37.870,167.179 38.079 C 162.073 39.850,157.974 41.836,152.360 45.258 C 147.993 47.921,142.254 52.713,142.926 53.136 C 143.191 53.302,179.127 53.426,235.829 53.455 C 241.868 53.458,241.966 53.419,240.169 51.739 C 239.050 50.693,236.554 48.732,234.688 47.434 C 232.073 45.613,230.487 44.566,230.344 44.566 C 230.253 44.566,229.797 44.307,229.331 43.990 C 227.892 43.013,222.394 40.264,220.198 39.424 C 219.050 38.985,217.667 38.438,217.124 38.208 C 216.174 37.805,214.540 37.295,210.538 36.153 C 203.723 34.208,191.626 33.286,184.303 34.153 M137.419 57.792 C 134.987 60.212,130.790 65.833,128.279 70.033 C 119.531 84.666,115.570 105.008,118.551 119.978 C 118.792 121.186,118.989 122.542,118.989 122.992 C 118.990 123.443,119.132 124.184,119.305 124.639 C 119.477 125.094,119.770 126.162,119.956 127.013 C 120.141 127.864,120.441 128.917,120.624 129.353 C 120.806 129.790,121.060 130.625,121.188 131.209 C 121.474 132.514,121.947 133.788,123.824 138.310 C 125.415 142.140,128.378 147.602,130.433 150.494 C 131.034 151.339,131.691 152.278,131.894 152.580 C 132.494 153.474,136.233 158.101,137.172 159.111 C 138.771 160.831,138.724 161.054,138.655 151.976 C 138.621 147.538,138.718 130.274,138.870 113.611 C 139.270 69.865,139.270 56.939,138.871 56.786 C 138.678 56.712,138.109 57.107,137.419 57.792 M246.096 58.516 C 245.886 58.769,245.838 60.808,245.891 67.348 C 246.085 91.415,245.620 155.856,245.234 158.491 C 244.825 161.290,245.458 160.831,250.212 154.885 C 254.046 150.090,258.432 142.705,260.056 138.310 C 260.212 137.887,260.704 136.701,261.149 135.675 C 261.593 134.649,262.091 133.266,262.255 132.602 C 262.419 131.937,262.694 131.048,262.866 130.626 C 263.346 129.448,264.293 125.694,264.665 123.491 C 264.849 122.404,265.094 121.169,265.209 120.746 C 266.348 116.576,266.208 100.843,264.981 95.170 C 263.641 88.976,262.900 86.234,261.541 82.437 C 260.944 80.769,260.821 80.486,258.911 76.401 C 256.775 71.831,256.056 70.603,252.183 64.918 C 249.027 60.286,246.678 57.815,246.096 58.516 M231.943 169.619 C 228.558 170.639,227.972 170.786,225.467 171.238 C 221.296 171.992,220.667 172.074,217.124 172.327 C 213.052 172.618,206.634 173.526,204.501 174.112 C 203.655 174.345,202.825 174.535,202.656 174.534 C 200.502 174.529,196.185 177.982,194.835 180.788 C 193.788 182.964,193.844 183.187,195.455 183.271 C 197.299 183.367,204.647 182.467,206.696 181.894 C 207.300 181.725,208.436 181.474,209.221 181.336 C 210.005 181.198,210.993 180.946,211.416 180.775 C 211.839 180.604,212.777 180.321,213.502 180.147 C 215.853 179.582,221.054 177.524,224.479 175.804 C 225.445 175.318,226.729 174.674,227.333 174.372 C 227.936 174.070,228.924 173.505,229.528 173.117 C 230.132 172.729,231.130 172.098,231.747 171.714 C 232.363 171.330,233.045 170.819,233.262 170.579 C 233.480 170.339,233.775 170.143,233.919 170.143 C 234.189 170.143,234.907 169.452,234.907 169.192 C 234.907 168.916,233.701 169.089,231.943 169.619 M152.360 171.540 C 152.360 171.828,155.226 173.719,157.073 174.651 C 157.560 174.896,158.156 175.210,158.397 175.347 C 159.365 175.898,163.095 177.596,164.329 178.048 C 165.051 178.312,166.284 178.773,167.069 179.073 C 167.854 179.372,169.286 179.841,170.252 180.113 C 171.218 180.386,172.355 180.721,172.777 180.857 C 176.040 181.906,184.907 183.315,188.244 183.315 C 190.548 183.315,190.670 183.006,189.166 180.979 C 186.022 176.745,179.811 174.061,171.679 173.423 C 170.170 173.304,167.453 173.017,165.642 172.784 C 163.831 172.550,161.613 172.298,160.714 172.222 C 159.815 172.146,157.937 171.894,156.543 171.663 C 153.489 171.156,152.360 171.123,152.360 171.540 " stroke="none" fill="#da0844" fill-rule="evenodd"></path><path id="path2" d="M0.000 109.769 L 0.000 219.539 200.000 219.539 L 400.000 219.539 400.000 109.769 L 400.000 0.000 200.000 0.000 L 0.000 0.000 0.000 109.769 M189.431 8.414 C 189.616 8.638,189.521 8.818,189.018 9.189 C 188.245 9.761,188.171 11.192,188.599 17.344 C 188.925 22.040,188.917 22.002,189.683 22.438 C 190.751 23.045,190.468 23.203,188.008 23.367 C 185.416 23.541,184.957 23.381,185.948 22.648 C 186.735 22.066,186.759 21.646,186.377 15.148 C 186.058 9.727,186.052 9.698,185.279 9.258 C 184.163 8.623,184.470 8.367,186.443 8.286 C 187.440 8.246,188.465 8.192,188.722 8.168 C 188.979 8.143,189.298 8.254,189.431 8.414 M200.988 8.470 C 203.057 8.741,203.293 8.809,203.293 9.128 C 203.293 9.307,203.142 9.512,202.958 9.583 C 202.153 9.891,202.176 10.421,203.188 14.859 C 204.242 19.484,204.523 20.384,204.811 20.066 C 204.909 19.957,205.635 18.633,206.424 17.124 C 209.625 10.998,209.592 11.092,208.857 10.280 C 208.295 9.659,208.755 9.476,210.269 9.717 C 212.888 10.133,213.008 10.221,211.767 10.813 C 210.801 11.273,210.203 12.088,208.666 15.038 C 206.388 19.411,203.904 23.933,203.716 24.049 C 203.430 24.226,202.876 23.234,202.661 22.158 C 202.555 21.623,202.097 19.605,201.645 17.673 C 201.193 15.741,200.701 13.617,200.552 12.953 C 200.013 10.545,199.765 9.916,199.096 9.262 C 198.283 8.468,198.424 8.016,199.423 8.216 C 199.801 8.292,200.505 8.406,200.988 8.470 M174.479 9.621 C 174.680 9.749,174.576 9.967,174.095 10.428 C 173.312 11.178,173.304 11.298,173.891 13.529 C 174.142 14.480,174.429 15.604,174.528 16.026 C 175.162 18.711,175.965 21.778,176.408 23.204 C 177.018 25.168,176.545 24.947,170.542 20.475 C 163.553 15.268,163.561 15.274,163.336 15.505 C 163.233 15.611,163.448 16.827,163.817 18.222 C 164.184 19.610,164.565 21.092,164.663 21.515 C 165.601 25.570,165.864 26.125,166.842 26.125 C 167.194 26.125,167.547 26.231,167.627 26.359 C 167.817 26.667,167.090 27.207,166.473 27.216 C 166.206 27.220,165.548 27.372,165.013 27.554 C 163.584 28.039,163.140 27.788,163.990 26.976 C 164.846 26.157,164.857 26.286,163.464 20.812 C 161.890 14.629,161.648 14.055,160.614 14.047 C 159.168 14.037,159.462 13.095,160.980 12.873 C 161.492 12.798,162.212 12.678,162.582 12.606 C 163.249 12.477,167.162 15.183,172.835 19.698 C 174.641 21.135,174.794 20.975,174.099 18.383 C 173.833 17.389,173.537 16.229,173.442 15.807 C 172.626 12.165,172.273 11.397,171.304 11.149 C 170.060 10.831,171.185 10.156,174.094 9.473 C 174.155 9.458,174.328 9.525,174.479 9.621 M223.442 13.160 C 224.133 13.382,224.995 13.686,225.357 13.835 C 226.583 14.338,226.890 14.456,228.821 15.164 C 231.087 15.994,231.080 15.987,230.707 17.248 C 230.375 18.373,230.103 18.399,229.746 17.339 C 229.508 16.631,228.575 15.859,227.915 15.823 C 227.752 15.814,227.307 15.673,226.927 15.508 C 224.573 14.493,224.232 14.471,223.902 15.313 C 222.303 19.401,222.126 20.313,222.887 20.526 C 223.159 20.602,223.578 20.752,223.820 20.860 C 226.007 21.836,226.839 21.951,227.485 21.366 C 228.245 20.679,228.356 21.326,227.749 22.897 C 227.180 24.368,226.564 24.866,226.564 23.854 C 226.564 23.127,226.048 22.741,224.045 21.970 C 221.592 21.025,221.920 20.790,220.523 24.496 C 219.737 26.584,219.817 26.946,221.186 27.472 C 224.726 28.833,225.263 28.896,226.319 28.071 C 227.379 27.243,227.550 27.836,226.645 29.203 C 226.004 30.171,225.663 30.250,224.431 29.717 C 223.260 29.210,222.758 29.022,216.914 26.897 C 216.037 26.578,215.771 26.125,216.462 26.125 C 217.666 26.125,217.861 25.761,220.303 18.947 C 221.812 14.735,221.954 13.998,221.378 13.362 C 220.876 12.807,221.136 12.194,221.738 12.515 C 221.985 12.648,222.752 12.938,223.442 13.160 M149.945 17.770 C 149.945 18.004,149.846 18.257,149.726 18.332 C 149.158 18.683,149.652 19.930,152.167 24.487 C 155.295 30.155,155.237 30.077,156.364 30.077 C 157.532 30.077,157.359 30.448,155.776 31.339 C 154.382 32.124,153.944 32.211,153.763 31.740 C 153.511 31.084,153.022 31.180,152.701 31.950 C 150.702 36.734,144.903 36.983,142.591 32.384 C 142.103 31.415,140.180 27.958,139.842 27.442 C 139.723 27.261,139.539 26.915,139.433 26.674 C 139.015 25.725,138.049 25.002,137.393 25.146 C 136.469 25.349,136.599 24.779,137.596 24.257 C 138.049 24.019,138.963 23.503,139.627 23.110 C 141.228 22.161,141.819 22.131,141.179 23.031 C 140.523 23.952,140.585 24.221,142.066 26.894 C 142.802 28.222,143.787 30.004,144.254 30.854 C 146.202 34.398,148.251 35.128,150.661 33.137 C 152.632 31.510,152.774 29.913,151.191 27.166 C 150.549 26.050,149.560 24.287,148.995 23.248 C 147.764 20.983,147.082 20.198,146.346 20.198 C 145.044 20.198,145.381 19.771,147.640 18.558 C 148.485 18.104,149.271 17.645,149.385 17.538 C 149.724 17.222,149.945 17.314,149.945 17.770 M244.442 23.005 C 247.726 25.218,248.742 26.373,248.906 28.081 C 249.121 30.321,246.887 32.550,244.838 32.140 L 244.218 32.016 244.285 35.918 C 244.337 38.967,244.425 39.933,244.688 40.334 C 245.382 41.393,244.641 41.434,243.249 40.413 C 242.131 39.592,242.158 39.705,242.155 35.939 C 242.151 32.168,241.998 31.534,240.863 30.579 C 240.283 30.091,239.517 29.913,239.517 30.266 C 239.517 30.370,239.021 31.207,238.415 32.127 C 237.150 34.046,236.876 34.952,237.392 35.521 C 237.883 36.064,237.570 36.506,236.941 36.159 C 235.476 35.348,233.157 33.681,233.224 33.486 C 233.267 33.362,233.655 33.292,234.086 33.330 C 234.826 33.396,236.154 32.125,236.683 30.845 C 236.798 30.567,239.068 27.071,240.205 25.422 C 241.537 23.489,241.793 22.747,241.396 21.979 C 241.102 21.410,241.133 21.062,241.475 21.084 C 241.545 21.088,242.880 21.953,244.442 23.005 M243.290 24.579 C 243.026 24.937,242.810 25.275,242.810 25.331 C 242.810 25.387,242.317 26.156,241.714 27.041 C 240.390 28.984,240.380 29.136,241.526 29.947 C 245.368 32.666,249.037 27.720,245.393 24.734 C 244.205 23.760,243.912 23.739,243.290 24.579 M196.926 31.848 C 202.267 32.329,203.484 32.496,207.837 33.350 C 215.380 34.829,224.245 38.416,231.932 43.098 C 246.416 51.920,256.827 64.753,263.667 82.217 C 264.985 85.582,266.904 93.144,267.427 97.036 C 268.521 105.177,268.338 118.286,267.074 122.269 C 267.002 122.495,266.849 123.208,266.734 123.854 C 265.951 128.255,264.043 134.409,262.010 139.098 C 247.008 173.694,209.870 192.226,173.546 183.243 C 167.095 181.648,158.415 178.113,153.972 175.270 C 153.339 174.865,152.760 174.533,152.686 174.533 C 152.612 174.533,151.249 173.651,149.657 172.573 C 104.505 142.006,104.253 75.643,149.172 44.891 C 152.848 42.374,161.252 37.761,162.161 37.761 C 162.279 37.761,162.768 37.571,163.247 37.340 C 171.287 33.455,186.757 30.933,196.926 31.848 M262.483 37.239 C 263.475 37.908,264.544 39.040,264.544 39.421 C 264.544 39.566,264.851 39.984,265.226 40.351 L 265.907 41.017 264.732 42.121 C 263.419 43.355,262.903 43.319,263.515 42.036 C 264.767 39.412,261.561 36.333,259.609 38.285 C 258.697 39.197,258.677 40.118,259.485 43.908 C 260.222 47.368,259.266 49.650,256.767 50.392 C 254.458 51.077,252.356 49.960,251.254 47.461 C 251.041 46.978,250.634 46.477,250.351 46.347 C 249.631 46.020,249.694 45.797,250.853 44.557 C 252.271 43.042,253.051 43.015,252.250 44.509 C 251.107 46.642,252.630 49.396,254.954 49.396 C 257.037 49.396,257.985 46.423,256.827 43.521 C 255.187 39.410,259.159 34.997,262.483 37.239 M120.026 41.552 C 120.638 42.109,120.458 42.439,119.641 42.259 C 118.734 42.060,118.292 42.385,116.588 44.502 C 114.821 46.698,114.766 46.413,117.378 48.595 C 119.802 50.620,119.549 50.607,121.021 48.793 C 122.609 46.836,122.804 46.447,122.490 45.860 C 122.016 44.975,122.608 44.944,123.733 45.797 C 125.383 47.047,125.500 47.597,124.106 47.554 C 123.235 47.528,120.372 50.535,120.650 51.185 C 120.845 51.641,124.612 54.665,124.984 54.665 C 125.165 54.665,126.022 53.801,126.890 52.744 L 128.467 50.823 128.347 49.451 C 128.203 47.803,128.469 47.677,129.378 48.963 C 130.244 50.187,130.214 50.250,126.784 54.421 C 123.820 58.024,122.751 58.950,123.146 57.572 C 123.415 56.636,123.129 56.196,121.266 54.668 C 120.316 53.889,119.490 53.199,119.429 53.135 C 119.157 52.846,115.296 49.643,114.669 49.186 C 114.098 48.770,113.806 48.703,113.077 48.820 C 111.567 49.061,111.515 49.150,116.098 43.640 C 118.829 40.357,118.756 40.396,120.026 41.552 M274.209 51.599 C 274.931 52.673,275.521 53.604,275.521 53.669 C 275.521 53.892,274.669 53.787,274.520 53.545 C 274.203 53.033,272.934 53.645,269.836 55.805 C 268.073 57.034,266.235 58.313,265.752 58.648 C 263.882 59.942,263.557 60.298,263.557 61.048 C 263.557 62.241,263.118 62.015,261.809 60.146 C 260.564 58.371,260.327 57.464,261.234 57.949 C 262.023 58.371,262.577 58.185,264.609 56.815 C 265.720 56.065,266.679 55.397,266.740 55.331 C 266.800 55.264,267.640 54.676,268.606 54.023 C 271.799 51.867,272.228 51.451,272.228 50.516 C 272.228 48.899,272.490 49.043,274.209 51.599 M148.268 55.711 C 143.690 55.755,142.033 55.840,141.871 56.041 C 141.732 56.213,141.594 64.359,141.491 78.485 C 141.246 111.843,141.228 114.046,141.082 128.979 C 141.008 136.586,140.897 144.786,140.834 147.201 C 140.710 152.064,140.995 158.198,141.402 159.385 C 142.625 162.958,144.251 164.991,146.984 166.367 C 149.263 167.514,150.885 168.104,153.677 168.800 C 155.732 169.312,162.384 170.111,172.338 171.043 C 173.727 171.172,175.851 171.506,177.058 171.785 C 178.266 172.063,179.605 172.352,180.034 172.426 C 180.464 172.501,181.201 172.758,181.672 172.999 C 182.144 173.239,182.616 173.436,182.721 173.436 C 184.040 173.436,188.863 176.914,190.619 179.132 C 192.281 181.230,192.160 181.222,193.092 179.312 C 195.859 173.640,202.115 171.059,215.333 170.134 C 216.982 170.019,218.578 169.875,218.880 169.814 C 219.182 169.754,220.565 169.557,221.954 169.378 C 226.461 168.795,233.110 166.913,236.773 165.184 C 238.703 164.273,241.299 161.855,242.079 160.243 C 243.236 157.850,243.147 160.312,243.335 125.576 C 243.729 52.906,243.727 56.712,243.367 56.351 C 243.085 56.069,242.023 56.015,236.424 56.000 C 232.788 55.989,229.723 55.925,229.613 55.857 C 229.502 55.789,222.770 55.755,214.651 55.782 C 198.448 55.836,171.636 55.800,161.142 55.710 C 157.459 55.679,151.666 55.679,148.268 55.711 M235.120 57.605 C 238.557 57.683,241.447 57.825,241.541 57.919 C 241.955 58.333,241.679 154.471,241.257 157.163 C 240.734 160.484,238.146 162.984,233.260 164.886 C 228.054 166.912,222.620 167.963,213.964 168.616 C 209.864 168.925,207.031 169.343,205.171 169.911 C 204.802 170.024,203.908 170.239,203.183 170.389 C 198.883 171.278,195.383 173.404,192.979 176.587 C 191.924 177.986,191.911 177.985,190.568 176.400 C 188.468 173.922,180.977 170.147,178.154 170.144 C 177.791 170.143,177.149 170.038,176.727 169.910 C 176.306 169.782,174.577 169.582,172.887 169.465 C 168.125 169.136,165.551 168.898,163.996 168.641 C 163.211 168.512,161.482 168.295,160.154 168.160 C 158.825 168.024,157.181 167.773,156.500 167.601 C 155.818 167.429,154.985 167.289,154.649 167.289 C 152.867 167.289,147.289 164.811,145.631 163.283 C 143.255 161.093,142.801 159.341,142.570 151.482 C 142.401 145.740,142.403 146.951,142.554 141.603 C 142.625 139.127,142.736 131.175,142.802 123.930 C 142.868 116.685,142.973 105.027,143.036 98.024 C 143.100 91.021,143.207 81.191,143.274 76.180 C 143.342 71.169,143.415 65.026,143.436 62.529 C 143.457 60.032,143.555 57.908,143.654 57.809 C 144.064 57.397,218.684 57.230,235.120 57.605 M106.257 58.635 C 106.469 59.662,106.846 59.922,111.416 62.192 C 117.256 65.093,117.465 65.170,118.195 64.692 C 119.309 63.962,119.274 64.527,118.056 66.941 C 117.085 68.865,116.736 69.150,116.611 68.119 C 116.502 67.225,116.269 67.030,113.873 65.828 C 111.604 64.689,111.208 64.642,110.887 65.472 C 110.780 65.747,110.098 67.206,109.370 68.714 C 107.828 71.911,107.764 71.659,110.467 73.016 C 112.542 74.058,113.344 74.195,113.984 73.617 C 114.963 72.730,114.858 73.695,113.731 75.942 C 112.635 78.126,112.184 78.522,112.184 77.303 C 112.184 76.324,108.915 74.360,102.744 71.632 C 101.139 70.922,101.015 70.905,100.218 71.285 C 99.097 71.820,99.103 71.617,100.278 69.235 C 101.409 66.943,101.668 66.725,101.901 67.866 C 102.074 68.710,102.475 69.035,104.813 70.229 C 107.160 71.427,106.924 71.569,108.681 67.913 C 110.549 64.026,110.580 64.255,108.012 62.966 C 105.743 61.828,105.288 61.735,104.548 62.253 C 103.628 62.897,103.697 62.020,104.734 59.907 C 105.694 57.946,106.053 57.647,106.257 58.635 M211.012 58.602 C 209.449 58.723,209.380 58.753,208.712 59.605 C 208.334 60.088,207.429 61.086,206.701 61.823 C 205.974 62.560,204.934 63.673,204.391 64.296 C 203.847 64.919,203.022 65.847,202.556 66.359 C 200.847 68.235,200.735 68.637,201.577 69.854 C 202.864 71.712,202.338 75.341,200.458 77.583 C 199.999 78.129,196.925 80.132,196.544 80.132 C 195.854 80.132,194.291 82.032,194.170 83.019 C 193.696 86.883,193.501 86.950,199.057 81.323 C 215.042 65.135,221.263 58.743,221.173 58.597 C 221.058 58.410,213.445 58.413,211.012 58.602 M164.741 58.926 C 164.662 59.134,164.926 59.517,165.458 59.968 C 166.437 60.796,168.117 62.478,175.183 69.705 C 185.956 80.724,191.311 86.059,191.600 86.059 C 191.886 86.059,191.853 84.400,191.534 82.835 C 191.428 82.313,188.746 79.473,188.359 79.473 C 187.636 79.473,185.035 77.136,184.464 75.972 C 183.317 73.638,183.748 70.306,185.371 68.960 C 185.993 68.444,185.832 68.235,181.065 63.391 L 176.400 58.650 170.633 58.624 C 165.701 58.602,164.849 58.645,164.741 58.926 M184.235 58.893 C 183.184 59.108,182.895 59.512,183.345 60.133 C 185.878 63.621,188.053 66.081,188.604 66.081 C 189.313 66.081,189.133 64.774,188.174 62.953 C 187.707 62.066,187.251 61.098,187.160 60.802 C 186.672 59.201,185.731 58.587,184.235 58.893 M189.023 58.824 C 187.993 59.086,188.229 61.157,189.455 62.620 C 189.632 62.832,190.135 63.672,190.573 64.488 C 191.829 66.829,192.009 66.660,192.191 62.963 C 192.359 59.556,192.290 59.100,191.578 58.959 C 190.500 58.744,189.538 58.693,189.023 58.824 M179.829 59.035 C 179.641 59.154,179.596 59.339,179.710 59.525 C 180.184 60.300,181.473 61.869,182.400 62.802 C 182.964 63.369,184.166 64.585,185.071 65.505 C 185.977 66.425,186.841 67.178,186.992 67.179 C 187.530 67.179,187.253 66.440,186.334 65.426 C 184.861 63.799,183.457 62.097,183.056 61.448 C 181.969 59.692,180.512 58.602,179.829 59.035 M196.230 59.050 C 195.545 59.115,194.909 59.244,194.817 59.336 C 194.416 59.737,194.037 61.258,193.983 62.678 C 193.847 66.320,194.901 66.008,196.953 61.800 C 198.400 58.833,198.403 58.843,196.230 59.050 M200.614 59.989 C 200.023 60.623,199.411 61.438,199.253 61.800 C 199.095 62.162,198.616 62.916,198.188 63.474 C 196.996 65.031,196.835 65.401,197.276 65.571 C 198.019 65.856,203.005 59.427,202.359 59.017 C 201.883 58.715,201.713 58.810,200.614 59.989 M203.596 60.461 C 202.104 61.975,201.793 62.582,202.296 63.000 C 202.569 63.227,202.712 63.171,203.124 62.675 C 203.398 62.346,204.190 61.448,204.885 60.681 C 206.338 59.075,206.349 59.049,205.543 59.077 C 205.109 59.092,204.564 59.479,203.596 60.461 M280.611 61.518 C 280.700 61.949,281.061 62.930,281.412 63.697 C 281.762 64.465,282.273 65.587,282.546 66.191 C 282.819 66.795,283.375 68.012,283.782 68.896 C 284.189 69.781,284.523 70.578,284.523 70.668 C 284.523 70.758,284.864 71.216,285.282 71.685 C 285.700 72.155,286.021 72.557,285.996 72.580 C 285.970 72.602,285.426 72.928,284.787 73.303 C 283.071 74.310,282.475 74.154,283.425 72.947 C 284.061 72.138,283.998 71.720,282.863 69.234 C 282.421 68.265,282.152 68.234,280.573 68.968 C 279.807 69.324,278.678 69.850,278.064 70.137 C 277.450 70.423,275.862 71.159,274.533 71.771 C 270.837 73.477,270.851 73.466,270.584 74.723 C 270.452 75.348,269.594 75.038,269.594 74.364 C 269.594 74.248,269.244 73.407,268.817 72.495 C 268.081 70.924,268.096 69.800,268.839 70.791 C 269.274 71.371,270.146 71.410,271.269 70.899 C 273.520 69.877,275.045 69.174,277.058 68.229 C 278.205 67.691,279.563 67.068,280.075 66.844 C 281.280 66.318,281.387 65.898,280.683 64.459 C 279.952 62.966,279.345 62.400,278.375 62.311 C 277.292 62.210,277.418 61.894,278.814 61.204 C 280.266 60.487,280.402 60.511,280.611 61.518 M200.337 64.975 C 199.764 65.608,200.055 66.298,200.663 65.748 C 201.096 65.356,201.264 64.544,200.912 64.544 C 200.810 64.544,200.551 64.738,200.337 64.975 M189.333 68.484 C 188.039 68.793,187.866 69.096,188.579 69.808 C 189.050 70.280,189.407 70.228,190.395 69.543 C 191.659 68.668,191.060 68.071,189.333 68.484 M194.290 68.827 C 194.061 69.104,194.150 69.286,194.828 69.925 C 195.793 70.835,196.029 70.864,196.698 70.153 L 197.204 69.614 195.940 69.055 C 194.447 68.395,194.629 68.420,194.290 68.827 M186.652 70.077 C 186.349 70.380,186.305 71.756,186.584 72.197 C 186.842 72.604,187.646 72.322,187.824 71.762 C 188.182 70.636,187.325 69.404,186.652 70.077 M191.821 70.417 C 191.051 71.278,191.668 73.546,192.672 73.546 C 193.187 73.546,194.512 72.207,194.512 71.686 C 194.512 70.355,192.658 69.481,191.821 70.417 M198.690 70.458 C 198.364 71.068,198.411 72.511,198.773 73.007 C 199.588 74.121,200.462 71.668,199.658 70.521 C 199.238 69.921,198.986 69.905,198.690 70.458 M188.762 73.334 C 187.996 75.158,189.220 76.583,190.608 75.484 C 191.647 74.660,191.654 74.159,190.639 73.202 C 189.600 72.221,189.218 72.248,188.762 73.334 M185.071 73.436 C 185.071 73.807,185.172 73.988,185.346 73.930 C 185.497 73.879,185.620 73.657,185.620 73.436 C 185.620 73.214,185.497 72.992,185.346 72.942 C 185.172 72.884,185.071 73.065,185.071 73.436 M195.958 73.600 C 195.915 73.751,195.753 74.298,195.598 74.814 C 195.182 76.195,195.616 76.559,196.502 75.573 C 197.244 74.747,197.314 74.204,196.745 73.689 C 196.264 73.255,196.061 73.232,195.958 73.600 M186.681 75.428 C 186.495 75.914,187.005 77.495,187.397 77.645 C 187.794 77.798,188.587 77.122,188.577 76.640 C 188.558 75.693,186.969 74.678,186.681 75.428 M191.658 76.585 C 191.658 78.277,192.722 78.935,193.617 77.797 C 194.194 77.063,194.197 77.084,193.402 76.235 C 192.339 75.101,191.658 75.238,191.658 76.585 M197.512 76.985 C 197.173 77.323,197.384 77.745,197.857 77.677 C 198.479 77.589,198.675 76.839,198.077 76.839 C 197.847 76.839,197.592 76.905,197.512 76.985 M189.145 77.917 C 188.927 78.269,189.276 78.814,189.803 78.947 C 190.643 79.158,190.877 78.837,190.319 78.242 C 189.806 77.697,189.358 77.572,189.145 77.917 M194.204 78.631 C 193.797 79.211,193.929 79.473,194.627 79.473 C 195.259 79.473,195.715 78.788,195.335 78.409 C 194.954 78.028,194.574 78.102,194.204 78.631 M98.596 80.583 C 99.086 80.845,99.076 80.860,98.169 81.287 C 97.120 81.781,96.913 82.085,96.471 83.780 C 95.902 85.967,95.746 85.820,99.451 86.598 C 100.357 86.788,101.740 87.096,102.525 87.283 C 103.310 87.470,104.396 87.710,104.940 87.817 C 105.483 87.924,106.273 88.116,106.694 88.243 C 107.897 88.605,108.490 88.520,109.147 87.890 C 109.957 87.115,110.116 87.528,109.668 89.248 C 109.482 89.960,109.330 90.758,109.330 91.021 C 109.330 91.284,109.141 91.732,108.910 92.017 L 108.489 92.536 108.341 91.948 C 108.150 91.188,107.569 90.674,106.657 90.457 C 106.256 90.362,104.544 89.971,102.854 89.588 C 101.164 89.205,99.188 88.751,98.463 88.579 C 95.964 87.986,95.708 88.022,95.349 89.023 C 94.782 90.605,94.874 92.131,95.576 92.782 C 96.186 93.347,96.252 93.916,95.692 93.780 C 92.954 93.115,92.801 93.002,93.400 92.086 C 93.597 91.786,93.859 91.073,93.983 90.502 C 94.106 89.930,94.293 89.067,94.397 88.584 C 94.501 88.101,94.685 87.311,94.806 86.828 C 94.926 86.345,95.143 85.357,95.287 84.632 C 95.432 83.908,95.646 82.992,95.763 82.597 C 95.880 82.202,95.907 81.471,95.822 80.972 L 95.669 80.065 96.883 80.190 C 97.550 80.259,98.321 80.436,98.596 80.583 M288.365 81.504 C 288.565 82.334,289.140 85.029,289.279 85.785 C 289.439 86.656,289.117 86.717,288.500 85.933 C 287.932 85.210,287.236 85.676,284.434 88.658 C 283.716 89.422,283.904 90.011,284.866 90.011 C 285.146 90.011,285.436 90.110,285.510 90.231 C 285.585 90.351,285.813 90.451,286.017 90.451 C 286.222 90.452,286.679 90.604,287.033 90.789 C 287.759 91.168,289.181 91.289,289.289 90.981 C 289.637 89.990,290.450 90.050,290.450 91.067 C 290.450 91.414,290.590 92.164,290.762 92.734 C 291.164 94.071,290.699 94.407,289.885 93.366 C 289.600 93.002,289.092 92.601,288.756 92.474 C 281.974 89.910,282.802 90.056,279.254 90.802 C 277.003 91.276,276.255 91.665,276.100 92.444 C 275.952 93.181,275.353 93.115,275.212 92.347 C 275.164 92.088,274.958 91.108,274.754 90.168 C 274.275 87.963,274.415 87.525,275.297 88.469 C 275.956 89.174,277.634 89.282,278.814 88.694 C 278.996 88.604,279.636 88.459,280.239 88.371 C 281.827 88.140,282.181 87.894,284.877 85.145 C 286.532 83.456,287.402 82.392,287.583 81.833 C 287.885 80.902,288.189 80.774,288.365 81.504 M144.207 88.749 C 144.190 92.522,144.151 97.338,144.119 99.451 C 143.908 113.638,143.930 134.877,144.157 134.953 C 144.506 135.070,169.816 109.680,170.147 108.881 C 170.540 107.932,170.153 107.463,163.534 100.878 C 160.378 97.739,156.153 93.496,154.145 91.450 C 147.605 84.786,144.666 81.888,144.450 81.888 C 144.318 81.888,144.226 84.490,144.207 88.749 M231.237 91.290 C 226.382 96.201,220.676 101.972,218.559 104.114 C 216.442 106.256,214.709 108.162,214.709 108.349 C 214.709 108.793,215.634 109.779,222.619 116.777 C 225.822 119.987,230.910 125.171,233.925 128.297 C 236.940 131.424,239.542 134.121,239.707 134.290 C 240.649 135.255,240.582 136.941,240.603 111.636 C 240.628 80.142,240.648 82.325,240.340 82.344 C 240.189 82.353,236.093 86.379,231.237 91.290 M178.211 87.722 L 177.607 88.049 177.571 91.829 C 177.551 93.908,177.510 97.684,177.480 100.220 C 177.252 119.253,177.243 119.020,178.214 118.664 C 180.737 117.739,186.899 118.864,189.457 120.718 C 190.583 121.533,190.954 121.577,191.096 120.911 C 191.464 119.177,191.659 113.686,191.709 103.607 L 191.767 92.065 191.168 91.160 C 189.514 88.658,180.764 86.337,178.211 87.722 M202.086 88.248 C 195.411 89.522,194.005 90.439,193.773 93.670 C 193.330 99.837,193.171 105.801,193.284 112.026 C 193.439 120.590,193.680 121.818,195.035 120.961 C 198.423 118.818,202.778 117.621,205.393 118.115 C 207.193 118.454,207.114 118.569,207.167 115.520 C 207.559 92.847,207.440 88.401,206.425 88.016 C 205.694 87.738,204.397 87.807,202.086 88.248 M174.967 89.821 C 173.318 91.793,173.455 90.631,173.322 103.748 C 173.110 124.474,172.963 122.777,174.780 120.535 L 176.006 119.022 176.132 113.463 C 176.330 104.716,176.217 89.073,175.954 88.985 C 175.830 88.943,175.386 89.320,174.967 89.821 M209.663 92.539 C 209.661 92.782,209.470 93.336,209.237 93.769 C 208.506 95.134,208.355 99.092,209.008 99.787 C 209.720 100.546,209.748 105.890,209.042 106.385 C 208.525 106.747,208.254 110.056,208.540 112.514 L 208.719 114.050 208.750 112.472 C 208.779 111.025,209.023 110.377,209.397 110.751 C 209.479 110.832,209.546 112.645,209.548 114.780 C 209.549 117.219,209.631 118.661,209.769 118.661 C 209.904 118.661,209.993 117.541,210.000 115.762 C 210.010 113.271,210.068 112.801,210.414 112.420 C 210.992 111.781,211.269 112.088,211.117 113.196 C 210.986 114.156,211.117 114.894,211.389 114.726 C 211.633 114.575,211.687 102.964,211.443 102.964 C 211.324 102.964,211.195 103.186,211.157 103.458 C 211.001 104.555,210.215 104.055,210.143 102.813 C 210.068 101.522,210.858 100.594,211.133 101.649 C 211.429 102.781,211.629 101.347,211.632 98.066 C 211.635 94.669,211.387 93.671,211.116 95.989 C 210.634 100.110,210.100 99.997,210.095 95.774 C 210.094 94.114,209.996 92.607,209.879 92.426 C 209.703 92.153,209.666 92.173,209.663 92.539 M181.559 93.763 C 185.775 94.897,190.999 97.582,190.999 98.615 C 190.999 98.873,190.172 98.833,190.008 98.568 C 189.570 97.860,185.018 96.062,181.633 95.260 C 179.532 94.762,179.144 94.559,179.144 93.954 C 179.144 93.256,179.552 93.224,181.559 93.763 M204.501 93.963 C 204.501 94.458,204.317 94.571,202.634 95.118 C 199.770 96.049,198.487 96.587,196.860 97.541 C 195.773 98.179,195.300 98.352,195.124 98.176 C 194.670 97.722,197.817 95.477,199.972 94.718 C 200.531 94.522,201.531 94.130,202.195 93.848 C 203.762 93.182,204.501 93.219,204.501 93.963 M204.186 101.654 C 205.299 102.250,204.305 102.956,200.631 104.180 C 197.813 105.118,196.036 105.891,195.228 106.530 C 194.846 106.833,194.272 106.565,194.428 106.157 C 194.890 104.954,203.193 101.123,204.186 101.654 M182.291 102.296 C 184.945 102.975,190.015 105.678,190.566 106.708 C 190.980 107.481,190.330 107.399,188.958 106.506 C 186.465 104.882,182.813 103.636,180.520 103.626 C 179.418 103.622,178.922 102.732,179.702 102.161 C 180.221 101.782,180.295 101.785,182.291 102.296 M210.933 108.529 C 210.994 109.948,210.783 110.648,210.291 110.648 C 210.185 110.648,210.099 109.801,210.099 108.765 C 210.099 106.221,210.823 106.015,210.933 108.529 M100.427 109.160 C 100.887 109.816,100.857 110.340,100.329 110.867 C 99.473 111.724,98.134 111.222,98.134 110.046 C 98.134 108.781,99.730 108.165,100.427 109.160 M285.661 108.967 C 285.864 109.121,286.095 109.505,286.174 109.819 C 286.484 111.055,284.507 111.876,283.767 110.818 C 282.836 109.489,284.372 107.987,285.661 108.967 M204.186 109.997 C 205.100 110.486,204.318 111.745,203.099 111.745 C 201.833 111.745,197.745 113.191,195.943 114.277 C 195.250 114.694,194.595 114.980,194.487 114.914 C 193.582 114.354,197.916 111.664,201.756 110.400 C 203.975 109.670,203.670 109.721,204.186 109.997 M184.342 111.835 C 188.058 113.092,190.458 114.423,190.303 115.141 C 190.239 115.437,190.156 115.435,189.572 115.124 C 187.751 114.152,184.245 113.096,181.668 112.742 C 179.936 112.505,179.587 112.382,179.342 111.926 C 178.649 110.631,180.676 110.594,184.342 111.835 M211.068 117.120 C 210.990 117.430,211.000 118.347,211.089 119.160 C 211.290 120.982,211.597 120.479,211.620 118.290 C 211.636 116.784,211.320 116.115,211.068 117.120 M202.744 119.355 C 199.760 119.832,195.121 121.800,193.554 123.253 C 192.418 124.307,192.165 124.263,190.181 122.662 C 188.221 121.079,188.001 120.981,184.742 120.215 C 179.595 119.006,175.650 120.116,174.518 123.092 C 174.164 124.024,174.290 124.040,182.215 124.040 C 190.482 124.040,190.549 124.049,190.567 125.208 C 190.577 125.856,191.285 126.661,192.034 126.876 C 193.132 127.190,194.512 126.379,194.512 125.418 C 194.512 123.806,195.197 123.666,204.281 123.416 C 210.302 123.250,210.172 123.311,208.579 121.405 C 207.162 119.708,205.091 118.981,202.744 119.355 M276.222 125.941 C 276.411 126.670,277.020 127.003,279.363 127.661 C 281.637 128.299,283.729 128.907,284.413 129.128 C 287.635 130.171,288.548 130.241,289.090 129.488 C 289.698 128.643,290.307 129.223,289.802 130.166 C 289.688 130.381,289.404 131.288,289.172 132.182 C 288.710 133.960,288.192 134.430,287.962 133.279 C 287.829 132.614,286.551 131.723,285.730 131.723 C 285.539 131.723,284.729 131.512,283.929 131.254 C 282.315 130.732,282.026 130.853,281.756 132.162 C 281.629 132.778,281.068 134.837,280.798 135.675 C 279.866 138.573,279.747 138.361,282.787 139.214 C 285.512 139.979,285.431 139.977,286.239 139.297 C 287.375 138.341,287.390 138.522,286.441 141.822 C 285.896 143.720,285.181 144.544,285.181 143.274 C 285.181 142.484,284.521 141.967,282.936 141.517 C 282.178 141.302,281.312 141.043,281.010 140.943 C 280.708 140.842,279.918 140.606,279.254 140.418 C 278.589 140.231,277.168 139.817,276.095 139.500 C 273.526 138.740,272.744 138.724,272.219 139.418 C 271.664 140.153,271.227 139.760,271.577 138.839 C 271.711 138.488,271.969 137.558,272.151 136.775 C 272.557 135.024,273.326 133.998,273.326 135.206 C 273.326 135.896,274.124 136.678,275.121 136.965 C 275.643 137.116,276.367 137.345,276.729 137.475 C 278.979 138.280,279.090 138.193,280.012 134.907 C 280.351 133.699,280.754 132.316,280.907 131.833 C 281.272 130.681,281.051 130.326,279.761 129.998 C 279.180 129.851,278.359 129.625,277.936 129.497 C 276.361 129.019,275.650 129.022,275.209 129.510 C 274.697 130.075,274.110 130.120,274.261 129.583 C 274.320 129.372,274.543 128.507,274.755 127.662 C 275.410 125.056,275.857 124.532,276.222 125.941 M105.630 126.549 C 109.464 127.713,112.048 131.871,111.335 135.729 C 109.748 144.314,98.061 144.647,95.925 136.167 C 94.465 130.376,100.039 124.852,105.630 126.549 M102.927 128.748 C 97.281 129.985,94.791 134.777,97.914 138.394 C 99.773 140.545,104.247 140.656,107.472 138.631 C 113.471 134.862,109.951 127.209,102.927 128.748 M186.663 135.596 C 183.614 138.696,181.120 141.315,181.120 141.417 C 181.120 141.629,181.432 141.663,183.864 141.714 C 188.980 141.822,188.867 141.735,186.937 144.060 C 185.305 146.026,185.281 145.993,188.346 145.993 C 191.464 145.993,191.494 145.961,190.193 144.061 C 188.529 141.630,188.677 141.536,193.961 141.663 C 199.000 141.783,199.078 141.828,197.900 143.943 C 196.754 146.000,196.749 145.993,199.451 145.993 C 202.238 145.993,202.302 145.880,200.659 143.841 C 200.055 143.092,199.561 142.331,199.561 142.150 C 199.561 141.789,199.607 141.783,201.976 141.811 C 204.816 141.844,204.923 142.037,198.575 135.680 C 195.436 132.538,192.719 129.966,192.537 129.964 C 192.355 129.962,189.712 132.496,186.663 135.596 M183.644 144.026 C 182.920 144.629,182.337 145.219,182.349 145.338 C 182.361 145.457,182.386 145.648,182.404 145.762 C 182.516 146.471,185.730 144.050,185.730 143.257 C 185.730 142.641,184.977 142.918,183.644 144.026 M195.798 143.188 C 194.738 144.035,193.879 146.107,194.652 145.955 C 195.112 145.864,196.648 144.044,196.744 143.477 C 196.832 142.956,196.294 142.792,195.798 143.188 M206.074 143.085 C 206.020 143.175,205.903 144.803,205.815 146.702 C 205.704 149.092,205.568 150.227,205.371 150.390 C 205.174 150.554,201.367 150.606,192.942 150.560 C 181.202 150.496,180.794 150.508,180.717 150.907 C 180.673 151.134,180.771 151.403,180.933 151.505 C 181.542 151.886,206.584 151.742,206.732 151.357 C 206.930 150.842,206.942 144.221,206.747 143.524 C 206.584 142.941,206.280 142.743,206.074 143.085 M167.344 154.912 C 161.397 160.867,156.531 165.835,156.531 165.952 C 156.531 166.321,156.901 166.426,159.660 166.846 C 165.328 167.707,169.526 168.139,175.632 168.489 C 176.418 168.534,177.318 168.635,177.633 168.714 C 178.485 168.928,178.569 168.548,178.699 163.932 C 178.832 159.168,178.717 159.394,181.023 159.389 C 182.940 159.384,183.108 159.254,183.858 157.190 C 184.186 156.284,184.601 155.218,184.778 154.820 C 184.956 154.422,185.119 153.830,185.141 153.503 L 185.181 152.909 182.786 152.895 L 180.390 152.881 179.768 152.136 C 178.594 150.730,178.413 149.872,178.678 146.973 C 178.917 144.358,178.884 143.991,178.417 144.051 C 178.274 144.069,173.290 148.957,167.344 154.912 M208.274 146.135 C 208.191 146.218,208.123 147.584,208.123 149.171 C 208.123 153.014,208.239 152.878,204.839 153.019 C 201.951 153.138,201.651 153.274,201.995 154.310 C 203.752 159.605,203.799 159.664,206.032 159.456 C 207.994 159.272,208.012 159.310,208.019 163.805 C 208.027 168.398,207.794 168.113,211.252 167.765 C 212.731 167.616,215.521 167.349,217.453 167.171 C 221.100 166.836,222.113 166.685,225.247 166.005 C 227.920 165.426,228.082 165.708,220.746 158.156 C 211.380 148.513,208.588 145.821,208.274 146.135 M117.269 148.567 C 117.793 149.499,118.420 150.611,118.662 151.037 C 121.097 155.316,121.121 155.422,119.829 156.169 C 118.859 156.729,118.548 156.528,119.057 155.667 C 119.556 154.822,119.530 154.533,118.845 153.301 C 117.201 150.342,117.041 150.197,116.077 150.790 C 115.687 151.030,114.726 151.573,113.941 151.998 C 112.070 153.010,111.977 153.182,112.634 154.421 C 113.778 156.576,114.229 157.075,115.102 157.148 C 116.281 157.247,116.113 157.642,114.499 158.570 C 112.534 159.700,112.347 159.663,112.934 158.256 C 113.234 157.538,113.214 157.458,112.330 155.892 C 111.063 153.645,111.018 153.629,109.079 154.766 C 106.400 156.338,106.037 156.667,106.037 157.530 C 106.037 158.690,105.485 158.478,104.721 157.025 C 104.356 156.331,103.862 155.421,103.623 155.003 C 103.091 154.073,103.338 153.738,104.219 154.194 C 104.929 154.561,105.911 154.236,107.922 152.966 C 108.403 152.663,110.077 151.700,111.643 150.827 C 114.940 148.989,115.697 148.365,115.697 147.489 C 115.697 146.404,116.277 146.801,117.269 148.567 M269.602 148.852 C 271.480 149.949,271.487 150.395,269.622 150.226 C 267.645 150.046,265.847 151.160,264.961 153.111 C 262.390 158.771,272.218 164.824,276.701 160.342 C 278.570 158.473,278.556 157.202,276.654 155.928 C 275.033 154.841,274.356 154.767,273.503 155.584 C 272.499 156.546,272.706 155.592,273.970 153.438 C 275.596 150.664,275.822 150.467,275.966 151.701 C 276.119 153.009,276.107 152.995,278.145 154.242 C 280.419 155.633,280.468 155.815,279.228 158.228 C 275.948 164.610,270.568 166.075,266.034 161.822 C 262.585 158.588,262.570 154.107,265.995 150.375 C 266.767 149.534,267.398 148.648,267.398 148.407 C 267.398 147.760,267.908 147.863,269.602 148.852 M199.410 154.035 C 199.206 154.567,200.688 158.721,201.176 158.986 C 201.927 159.392,202.081 158.865,201.584 157.587 C 201.335 156.946,200.961 155.878,200.753 155.214 C 200.287 153.727,199.719 153.229,199.410 154.035 M205.635 161.288 C 205.402 161.521,205.463 167.906,205.700 168.052 C 206.459 168.521,206.772 167.368,206.682 164.438 C 206.583 161.199,206.369 160.554,205.635 161.288 M191.281 162.158 C 190.037 162.772,189.462 164.307,189.462 167.017 C 189.462 170.251,189.573 170.143,186.271 170.143 C 183.399 170.143,183.076 170.254,184.248 170.837 C 186.405 171.912,186.626 171.962,188.552 171.814 C 190.998 171.626,190.996 171.629,191.012 169.073 C 191.036 165.266,191.392 164.225,193.047 163.135 C 194.499 162.180,192.962 161.329,191.281 162.158 M192.807 165.477 C 192.540 166.083,192.420 167.144,192.358 169.484 C 192.262 173.078,192.309 172.989,190.518 172.993 C 189.191 172.997,188.650 173.349,189.354 173.752 C 189.579 173.880,190.175 174.355,190.680 174.808 C 191.865 175.872,191.726 175.915,193.694 173.870 C 195.591 171.899,195.554 172.002,194.950 170.415 C 194.613 169.526,194.512 168.728,194.512 166.957 L 194.512 164.654 193.842 164.654 C 193.279 164.654,193.114 164.786,192.807 165.477 M257.629 167.809 C 259.033 168.786,259.672 170.298,259.270 171.699 C 259.152 172.109,259.056 172.507,259.056 172.583 C 259.056 172.658,259.662 172.789,260.402 172.873 C 261.143 172.957,262.501 173.215,263.421 173.447 C 265.220 173.900,267.073 174.005,267.283 173.665 C 267.443 173.406,268.057 173.617,268.057 173.931 C 268.057 174.057,267.592 174.600,267.024 175.137 C 265.901 176.197,266.144 176.163,263.447 175.634 C 258.630 174.689,257.902 174.708,256.795 175.815 L 256.123 176.487 257.903 178.303 C 259.641 180.077,259.708 180.120,260.742 180.126 C 262.056 180.133,262.056 180.135,260.169 182.122 C 258.551 183.824,257.786 184.237,258.183 183.191 C 258.576 182.158,258.417 181.935,254.391 177.878 C 250.061 173.516,249.520 173.096,248.648 173.428 C 247.423 173.894,247.898 173.075,250.192 170.767 C 253.870 167.066,255.582 166.386,257.629 167.809 M253.019 169.300 C 250.731 170.560,250.756 171.183,253.187 173.605 C 255.679 176.086,255.746 176.091,257.210 173.933 C 258.964 171.350,255.749 167.797,253.019 169.300 M196.762 170.069 C 196.391 170.218,196.415 170.688,196.811 171.016 C 197.071 171.232,197.334 171.189,198.149 170.794 C 198.880 170.440,199.080 170.251,198.868 170.117 C 198.552 169.917,197.214 169.886,196.762 170.069 M135.350 171.971 C 135.951 172.493,136.680 173.111,136.970 173.343 C 137.260 173.575,138.149 174.311,138.946 174.978 C 139.743 175.644,140.815 176.517,141.328 176.917 C 142.425 177.772,142.447 177.917,141.630 178.903 C 140.904 179.779,140.484 179.662,140.652 178.630 C 140.800 177.718,140.133 176.989,136.745 174.363 C 136.232 173.965,132.388 178.492,132.776 179.037 C 133.851 180.545,136.778 182.125,137.380 181.522 C 138.158 180.744,137.844 182.101,136.990 183.208 C 135.901 184.620,135.333 184.803,135.545 183.674 C 135.711 182.788,135.489 182.489,133.499 180.915 C 131.649 179.454,132.054 179.305,129.653 182.327 C 128.233 184.115,128.184 184.399,129.144 185.265 C 131.926 187.775,132.668 188.168,133.793 187.729 C 134.164 187.585,134.554 187.446,134.660 187.421 C 134.986 187.345,135.056 187.872,134.754 188.122 C 132.675 189.836,133.460 190.118,128.286 185.796 C 124.117 182.312,124.126 182.322,125.278 182.509 C 126.551 182.716,126.705 182.570,131.618 176.488 C 134.218 173.270,134.499 172.792,134.161 172.160 C 133.450 170.832,133.947 170.753,135.350 171.971 M241.493 178.797 C 241.493 178.968,241.335 179.388,241.143 179.730 C 240.746 180.434,240.828 180.730,241.923 182.547 C 242.287 183.150,242.652 183.784,242.734 183.954 C 242.817 184.124,243.493 185.310,244.237 186.588 C 244.981 187.867,245.729 189.160,245.901 189.462 C 246.573 190.645,247.262 191.218,248.010 191.218 C 249.237 191.218,248.990 191.589,247.045 192.663 L 245.901 193.296 245.445 192.806 C 244.808 192.123,244.679 192.178,244.243 193.319 C 243.151 196.179,239.116 197.937,236.856 196.538 C 235.474 195.683,234.946 194.932,231.545 188.987 C 230.506 187.173,229.882 186.573,229.113 186.650 C 227.574 186.803,228.605 185.846,232.112 183.863 C 232.846 183.448,233.310 184.032,232.637 184.524 C 232.114 184.906,232.187 185.823,232.821 186.828 C 233.123 187.306,233.370 187.738,233.370 187.788 C 233.370 187.963,236.948 193.966,237.298 194.379 C 238.820 196.173,241.698 195.612,243.230 193.224 C 244.342 191.491,244.235 190.981,241.897 186.919 C 240.792 184.997,239.748 183.156,239.579 182.827 C 239.157 182.008,238.168 181.327,237.744 181.564 C 237.291 181.817,236.689 181.445,237.019 181.115 C 237.322 180.812,241.105 178.514,241.328 178.498 C 241.419 178.491,241.493 178.625,241.493 178.797 M151.372 183.621 C 151.734 183.815,153.105 184.469,154.418 185.073 C 160.810 188.014,162.785 192.673,159.654 197.426 C 156.990 201.472,153.994 201.598,146.213 197.992 C 143.166 196.580,142.984 196.399,144.350 196.143 C 145.283 195.968,145.636 195.499,146.818 192.865 C 147.306 191.778,148.094 190.049,148.568 189.023 C 149.042 187.997,149.659 186.599,149.939 185.916 L 150.447 184.676 149.979 183.919 C 149.276 182.781,149.657 182.700,151.372 183.621 M152.486 185.785 C 152.308 186.057,151.999 186.674,151.799 187.157 C 151.599 187.640,150.991 188.974,150.449 190.121 C 147.283 196.818,147.192 197.282,148.847 198.238 C 152.748 200.492,156.054 199.506,157.937 195.525 C 159.987 191.191,158.741 187.905,154.275 185.869 C 152.748 185.173,152.882 185.180,152.486 185.785 M218.924 191.149 C 220.917 192.313,221.232 194.780,219.603 196.448 C 219.126 196.936,219.273 197.101,220.500 197.458 C 223.370 198.292,224.391 201.394,222.489 203.499 C 221.548 204.541,220.361 205.059,216.653 206.046 C 213.401 206.912,212.889 206.905,213.595 206.008 C 214.179 205.265,214.168 204.680,213.527 202.405 C 213.239 201.384,212.634 199.166,212.184 197.475 C 211.209 193.812,210.977 193.314,210.105 193.010 C 208.900 192.590,209.183 192.424,212.843 191.400 C 213.326 191.265,214.116 191.020,214.599 190.854 C 215.770 190.454,217.993 190.605,218.924 191.149 M173.594 191.893 C 174.775 192.144,175.863 192.387,176.012 192.434 C 176.468 192.577,176.070 193.159,175.419 193.303 C 174.728 193.454,174.291 194.366,173.892 196.487 C 173.767 197.151,173.511 198.386,173.322 199.232 C 171.947 205.397,171.950 205.372,172.514 206.135 C 173.137 206.977,173.133 207.328,172.503 207.181 C 172.231 207.118,171.416 206.947,170.692 206.800 C 168.262 206.310,167.873 205.985,169.014 205.395 C 169.844 204.965,169.931 204.702,171.246 198.637 C 172.388 193.366,172.431 192.718,171.665 192.308 C 171.298 192.112,171.050 191.438,171.344 191.438 C 171.401 191.438,172.414 191.643,173.594 191.893 M214.062 191.900 C 212.960 192.340,212.954 192.397,213.716 194.932 C 214.692 198.180,214.844 198.305,216.673 197.372 C 220.377 195.482,217.931 190.355,214.062 191.900 M187.727 194.069 L 188.956 194.072 190.575 196.103 C 195.883 202.763,197.874 205.053,198.133 204.794 C 198.175 204.752,198.142 202.611,198.061 200.035 C 197.901 195.000,197.966 195.267,196.707 194.501 C 196.118 194.142,196.910 193.859,198.463 193.872 C 200.517 193.889,200.948 194.096,200.042 194.632 C 199.028 195.230,199.015 195.327,199.014 202.301 C 199.012 209.677,199.018 209.660,197.242 207.445 C 196.646 206.702,195.763 205.620,195.280 205.043 C 193.925 203.423,191.010 199.852,189.791 198.319 C 188.134 196.235,188.145 196.213,188.145 201.729 C 188.145 207.564,188.190 207.853,189.165 208.260 C 189.899 208.567,190.147 208.978,189.627 209.027 C 186.253 209.341,185.283 209.079,186.389 208.152 L 187.157 207.508 187.100 201.943 C 187.039 196.046,186.918 195.256,186.040 195.036 C 185.297 194.849,184.899 194.318,185.305 194.053 C 185.478 193.940,185.818 193.897,186.059 193.957 C 186.301 194.017,187.051 194.068,187.727 194.069 M216.109 198.482 C 214.817 198.857,214.842 200.296,216.200 203.741 C 217.123 206.085,221.076 204.440,221.076 201.711 C 221.076 199.236,218.742 197.719,216.109 198.482 " stroke="none" fill="#fbfbfb" fill-rule="evenodd"></path></g></svg>