<svg id="svg" version="1.1" xmlns="http://www.w3.org/2000/svg" xmlns:xlink="http://www.w3.org/1999/xlink" width="400" height="400" viewBox="0, 0, 400,400"><g id="svgg"><path id="path0" d="M0.000 200.000 L 0.000 400.000 200.000 400.000 L 400.000 400.000 400.000 200.000 L 400.000 0.000 200.000 0.000 L 0.000 0.000 0.000 200.000 M375.520 26.480 C 376.220 27.180,376.220 372.820,375.520 373.520 C 374.561 374.479,30.928 374.186,30.414 373.226 C 29.774 372.031,29.840 27.120,30.480 26.480 C 31.180 25.780,374.820 25.780,375.520 26.480 M189.600 52.056 C 187.730 52.249,185.030 52.751,183.600 53.174 C 182.170 53.596,179.920 54.061,178.600 54.207 C 177.280 54.354,175.930 54.700,175.600 54.977 C 175.270 55.253,173.650 55.797,172.000 56.184 C 170.350 56.572,168.820 57.027,168.600 57.196 C 168.380 57.365,167.166 57.800,165.902 58.162 C 164.639 58.525,162.992 59.237,162.243 59.745 C 161.493 60.254,160.277 60.894,159.540 61.169 C 157.364 61.979,152.260 64.511,151.464 65.175 C 151.059 65.513,149.319 66.602,147.598 67.595 C 141.648 71.027,130.198 81.176,128.186 84.800 C 127.759 85.570,127.196 86.470,126.936 86.800 C 125.832 88.199,120.879 97.148,120.401 98.608 C 120.114 99.484,119.657 100.560,119.386 101.000 C 115.908 106.650,114.147 132.805,116.612 142.200 C 116.959 143.520,117.400 145.320,117.593 146.200 C 118.093 148.473,120.358 154.826,121.062 155.928 C 121.389 156.439,121.901 157.552,122.201 158.402 C 123.992 163.479,134.184 175.532,141.400 181.107 C 142.720 182.127,143.938 183.185,144.108 183.459 C 144.277 183.733,145.987 185.076,147.908 186.443 C 149.828 187.811,152.317 189.620,153.437 190.465 C 154.557 191.309,155.603 192.000,155.760 192.000 C 155.917 192.000,157.161 192.774,158.523 193.719 C 159.885 194.665,161.720 195.811,162.600 196.266 C 163.480 196.722,166.090 198.133,168.400 199.401 C 170.710 200.670,176.920 203.902,182.200 206.583 C 190.872 210.986,199.212 215.308,205.800 218.814 C 207.120 219.516,208.470 220.321,208.800 220.602 C 209.130 220.883,211.020 221.937,213.000 222.944 C 214.980 223.952,217.050 225.035,217.600 225.353 C 218.150 225.670,220.177 226.845,222.106 227.965 C 224.034 229.084,225.692 230.000,225.792 230.000 C 226.207 230.000,232.647 234.333,233.171 234.964 C 233.485 235.343,234.295 235.937,234.971 236.284 C 236.092 236.860,240.400 240.985,240.400 241.483 C 240.400 241.599,240.940 242.309,241.600 243.061 C 242.260 243.813,242.800 244.656,242.800 244.936 C 242.800 245.215,243.355 246.319,244.033 247.388 C 244.712 248.458,245.602 250.643,246.011 252.243 C 246.420 253.844,247.014 255.659,247.330 256.277 C 247.951 257.489,249.032 270.608,248.890 275.200 C 248.742 279.987,247.953 286.988,247.425 288.200 C 247.138 288.860,246.692 290.570,246.433 292.000 C 246.174 293.430,245.251 296.102,244.381 297.938 C 243.512 299.775,242.800 301.523,242.800 301.824 C 242.800 302.126,242.293 302.963,241.673 303.686 C 241.053 304.409,240.313 305.579,240.030 306.287 C 239.746 306.994,239.275 307.772,238.983 308.014 C 238.691 308.256,238.070 309.207,237.603 310.127 C 237.136 311.047,236.345 312.160,235.845 312.600 C 235.345 313.040,234.557 314.030,234.094 314.800 C 233.077 316.492,231.135 318.410,228.701 320.126 C 227.707 320.827,225.928 322.129,224.747 323.020 C 221.857 325.200,213.552 328.800,211.411 328.800 C 210.871 328.800,209.567 329.140,208.512 329.556 C 200.684 332.642,177.827 331.532,166.844 327.534 C 164.999 326.862,162.983 326.167,162.364 325.990 C 161.174 325.648,152.505 320.615,149.800 318.695 C 146.834 316.589,141.486 311.421,139.147 308.400 C 137.870 306.750,136.144 304.610,135.312 303.644 C 133.531 301.576,133.206 301.112,128.415 293.826 C 125.052 288.711,121.847 282.638,119.009 276.000 C 118.397 274.570,117.583 272.680,117.201 271.800 C 116.818 270.920,116.384 269.811,116.237 269.336 C 115.777 267.853,114.926 267.417,114.402 268.396 C 113.943 269.255,113.961 273.490,114.536 299.800 C 115.169 328.725,114.403 325.352,121.075 328.583 C 123.674 329.841,126.340 331.152,127.000 331.496 C 129.486 332.790,130.370 333.207,137.000 336.209 C 140.740 337.903,144.070 339.516,144.400 339.794 C 144.730 340.071,145.630 340.412,146.400 340.550 C 147.170 340.688,149.420 341.498,151.400 342.350 C 153.380 343.202,155.962 344.103,157.138 344.353 C 158.314 344.603,159.659 345.076,160.127 345.404 C 160.595 345.732,161.642 346.000,162.453 346.000 C 163.265 346.000,165.070 346.371,166.464 346.824 C 167.859 347.277,170.800 347.805,173.000 347.997 C 175.200 348.190,179.070 348.582,181.600 348.870 C 187.431 349.532,197.700 349.546,203.400 348.899 C 212.722 347.841,213.924 347.656,216.424 346.887 C 217.841 346.452,219.990 345.961,221.200 345.797 C 222.410 345.633,223.829 345.161,224.354 344.749 C 224.879 344.337,225.545 344.000,225.835 344.000 C 227.698 344.000,242.185 337.247,246.438 334.397 C 259.447 325.677,269.040 316.378,276.181 305.564 C 280.250 299.402,286.390 284.367,286.404 280.531 C 286.406 279.909,286.766 277.353,287.204 274.852 C 288.345 268.330,288.343 252.985,287.200 248.000 C 286.771 246.130,286.416 243.929,286.410 243.108 C 286.405 242.288,286.145 240.938,285.834 240.108 C 285.523 239.279,285.160 237.832,285.028 236.894 C 284.340 231.994,278.991 221.169,274.585 215.760 C 273.580 214.526,272.317 212.819,271.779 211.966 C 269.742 208.739,257.942 198.061,255.037 196.816 C 254.075 196.404,253.169 195.874,253.024 195.640 C 252.879 195.405,251.465 194.566,249.880 193.774 C 248.296 192.983,246.550 191.927,246.000 191.428 C 244.823 190.359,242.824 189.233,234.200 184.784 C 226.091 180.601,224.658 179.841,222.200 178.415 C 221.100 177.778,219.750 177.052,219.200 176.804 C 217.054 175.834,208.400 171.434,204.600 169.379 C 202.400 168.190,199.070 166.495,197.200 165.614 C 195.330 164.732,193.530 163.824,193.200 163.595 C 192.870 163.367,191.807 162.804,190.838 162.344 C 189.870 161.884,187.549 160.629,185.681 159.554 C 183.813 158.479,182.212 157.600,182.123 157.600 C 182.034 157.600,180.977 156.970,179.773 156.200 C 178.569 155.430,177.478 154.800,177.347 154.800 C 177.217 154.800,176.545 154.342,175.855 153.781 C 175.165 153.221,172.530 151.393,170.000 149.720 C 164.702 146.215,160.780 143.025,158.856 140.655 C 155.620 136.669,152.767 131.378,152.031 128.000 C 151.768 126.790,151.182 124.361,150.730 122.602 C 149.044 116.045,150.802 100.065,153.664 95.938 C 154.069 95.354,154.400 94.724,154.401 94.538 C 154.402 93.950,156.855 89.473,158.202 87.600 C 158.914 86.610,159.775 85.260,160.115 84.600 C 161.599 81.721,169.185 75.393,172.800 74.019 C 173.570 73.726,174.830 73.081,175.600 72.585 C 180.774 69.252,201.798 67.668,211.200 69.903 C 220.579 72.133,231.993 77.175,237.600 81.567 C 240.141 83.557,248.540 92.089,250.461 94.631 C 251.637 96.188,253.610 98.798,254.844 100.431 C 256.079 102.064,257.576 104.282,258.170 105.361 C 258.765 106.439,259.662 107.879,260.162 108.561 C 260.663 109.242,261.317 110.430,261.617 111.200 C 263.469 115.960,265.116 118.904,265.507 118.157 C 265.967 117.279,265.477 96.363,264.834 89.400 C 264.610 86.980,264.319 81.421,264.187 77.046 C 264.009 71.106,263.802 68.869,263.370 68.210 C 262.007 66.130,252.610 61.131,244.600 58.224 C 242.400 57.426,240.187 56.599,239.681 56.386 C 239.176 56.174,238.344 56.000,237.833 56.000 C 237.322 56.000,235.756 55.631,234.352 55.180 C 232.948 54.729,230.360 54.170,228.600 53.938 C 226.840 53.705,224.857 53.276,224.193 52.983 C 221.792 51.925,197.265 51.267,189.600 52.056 " stroke="none" fill="#f7fafa" fill-rule="evenodd"></path><path id="path1" d="M30.480 26.480 C 29.840 27.120,29.774 372.031,30.414 373.226 C 30.928 374.186,374.561 374.479,375.520 373.520 C 376.220 372.820,376.220 27.180,375.520 26.480 C 374.820 25.780,31.180 25.780,30.480 26.480 M213.599 52.026 C 219.660 52.300,223.414 52.640,224.193 52.983 C 224.857 53.276,226.840 53.705,228.600 53.938 C 230.360 54.170,232.948 54.729,234.352 55.180 C 235.756 55.631,237.322 56.000,237.833 56.000 C 238.344 56.000,239.176 56.174,239.681 56.386 C 240.187 56.599,242.400 57.426,244.600 58.224 C 252.610 61.131,262.007 66.130,263.370 68.210 C 263.802 68.869,264.009 71.106,264.187 77.046 C 264.319 81.421,264.610 86.980,264.834 89.400 C 265.477 96.363,265.967 117.279,265.507 118.157 C 265.116 118.904,263.469 115.960,261.617 111.200 C 261.317 110.430,260.663 109.242,260.162 108.561 C 259.662 107.879,258.765 106.439,258.170 105.361 C 257.576 104.282,256.079 102.064,254.844 100.431 C 253.610 98.798,251.637 96.188,250.461 94.631 C 248.540 92.089,240.141 83.557,237.600 81.567 C 231.993 77.175,220.579 72.133,211.200 69.903 C 201.798 67.668,180.774 69.252,175.600 72.585 C 174.830 73.081,173.570 73.726,172.800 74.019 C 169.185 75.393,161.599 81.721,160.115 84.600 C 159.775 85.260,158.914 86.610,158.202 87.600 C 156.855 89.473,154.402 93.950,154.401 94.538 C 154.400 94.724,154.069 95.354,153.664 95.938 C 150.802 100.065,149.044 116.045,150.730 122.602 C 151.182 124.361,151.768 126.790,152.031 128.000 C 152.767 131.378,155.620 136.669,158.856 140.655 C 160.780 143.025,164.702 146.215,170.000 149.720 C 172.530 151.393,175.165 153.221,175.855 153.781 C 176.545 154.342,177.217 154.800,177.347 154.800 C 177.478 154.800,178.569 155.430,179.773 156.200 C 180.977 156.970,182.034 157.600,182.123 157.600 C 182.212 157.600,183.813 158.479,185.681 159.554 C 187.549 160.629,189.870 161.884,190.838 162.344 C 191.807 162.804,192.870 163.367,193.200 163.595 C 193.530 163.824,195.330 164.732,197.200 165.614 C 199.070 166.495,202.400 168.190,204.600 169.379 C 208.400 171.434,217.054 175.834,219.200 176.804 C 219.750 177.052,221.100 177.778,222.200 178.415 C 224.658 179.841,226.091 180.601,234.200 184.784 C 242.824 189.233,244.823 190.359,246.000 191.428 C 246.550 191.927,248.296 192.983,249.880 193.774 C 251.465 194.566,252.879 195.405,253.024 195.640 C 253.169 195.874,254.075 196.404,255.037 196.816 C 257.942 198.061,269.742 208.739,271.779 211.966 C 272.317 212.819,273.580 214.526,274.585 215.760 C 278.991 221.169,284.340 231.994,285.028 236.894 C 285.160 237.832,285.523 239.279,285.834 240.108 C 286.145 240.938,286.405 242.288,286.410 243.108 C 286.416 243.929,286.771 246.130,287.200 248.000 C 288.343 252.985,288.345 268.330,287.204 274.852 C 286.766 277.353,286.406 279.909,286.404 280.531 C 286.400 281.689,283.774 290.211,282.316 293.800 C 276.207 308.836,264.048 322.593,246.438 334.397 C 242.185 337.247,227.698 344.000,225.835 344.000 C 225.545 344.000,224.879 344.337,224.354 344.749 C 223.829 345.161,222.410 345.633,221.200 345.797 C 219.990 345.961,217.841 346.452,216.424 346.887 C 213.924 347.656,212.722 347.841,203.400 348.899 C 197.700 349.546,187.431 349.532,181.600 348.870 C 179.070 348.582,175.200 348.190,173.000 347.997 C 170.800 347.805,167.859 347.277,166.464 346.824 C 165.070 346.371,163.265 346.000,162.453 346.000 C 161.642 346.000,160.595 345.732,160.127 345.404 C 159.659 345.076,158.314 344.603,157.138 344.353 C 155.962 344.103,153.380 343.202,151.400 342.350 C 149.420 341.498,147.170 340.688,146.400 340.550 C 145.630 340.412,144.730 340.071,144.400 339.794 C 144.070 339.516,140.740 337.903,137.000 336.209 C 130.370 333.207,129.486 332.790,127.000 331.496 C 126.340 331.152,123.674 329.841,121.075 328.583 C 114.403 325.352,115.169 328.725,114.536 299.800 C 113.961 273.490,113.943 269.255,114.402 268.396 C 114.926 267.417,115.777 267.853,116.237 269.336 C 116.384 269.811,116.818 270.920,117.201 271.800 C 117.583 272.680,118.397 274.570,119.009 276.000 C 121.847 282.638,125.052 288.711,128.415 293.826 C 133.206 301.112,133.531 301.576,135.312 303.644 C 136.144 304.610,137.870 306.750,139.147 308.400 C 141.486 311.421,146.834 316.589,149.800 318.695 C 152.505 320.615,161.174 325.648,162.364 325.990 C 162.983 326.167,164.999 326.862,166.844 327.534 C 177.827 331.532,200.684 332.642,208.512 329.556 C 209.567 329.140,210.871 328.800,211.411 328.800 C 213.552 328.800,221.857 325.200,224.747 323.020 C 225.928 322.129,227.707 320.827,228.701 320.126 C 231.135 318.410,233.077 316.492,234.094 314.800 C 234.557 314.030,235.345 313.040,235.845 312.600 C 236.345 312.160,237.136 311.047,237.603 310.127 C 238.070 309.207,238.691 308.256,238.983 308.014 C 239.275 307.772,239.746 306.994,240.030 306.287 C 240.313 305.579,241.053 304.409,241.673 303.686 C 242.293 302.963,242.800 302.126,242.800 301.824 C 242.800 301.523,243.512 299.775,244.381 297.938 C 245.251 296.102,246.174 293.430,246.433 292.000 C 246.692 290.570,247.138 288.860,247.425 288.200 C 249.198 284.126,249.125 259.783,247.330 256.277 C 247.014 255.659,246.420 253.844,246.011 252.243 C 245.602 250.643,244.712 248.458,244.033 247.388 C 243.355 246.319,242.800 245.215,242.800 244.936 C 242.800 244.656,242.260 243.813,241.600 243.061 C 240.940 242.309,240.400 241.599,240.400 241.483 C 240.400 240.985,236.092 236.860,234.971 236.284 C 234.295 235.937,233.485 235.343,233.171 234.964 C 232.647 234.333,226.207 230.000,225.792 230.000 C 225.692 230.000,224.034 229.084,222.106 227.965 C 220.177 226.845,218.150 225.670,217.600 225.353 C 217.050 225.035,214.980 223.952,213.000 222.944 C 211.020 221.937,209.130 220.883,208.800 220.602 C 208.470 220.321,207.120 219.516,205.800 218.814 C 199.212 215.308,190.872 210.986,182.200 206.583 C 176.920 203.902,170.710 200.670,168.400 199.401 C 166.090 198.133,163.480 196.722,162.600 196.266 C 161.720 195.811,159.885 194.665,158.523 193.719 C 157.161 192.774,155.917 192.000,155.760 192.000 C 155.603 192.000,154.557 191.309,153.437 190.465 C 152.317 189.620,149.828 187.811,147.908 186.443 C 145.987 185.076,144.277 183.733,144.108 183.459 C 143.938 183.185,142.720 182.127,141.400 181.107 C 134.184 175.532,123.992 163.479,122.201 158.402 C 121.901 157.552,121.389 156.439,121.062 155.928 C 120.358 154.826,118.093 148.473,117.593 146.200 C 117.400 145.320,116.959 143.520,116.612 142.200 C 114.147 132.805,115.908 106.650,119.386 101.000 C 119.657 100.560,120.114 99.484,120.401 98.608 C 120.879 97.148,125.832 88.199,126.936 86.800 C 127.196 86.470,127.759 85.570,128.186 84.800 C 130.198 81.176,141.648 71.027,147.598 67.595 C 149.319 66.602,151.059 65.513,151.464 65.175 C 152.260 64.511,157.364 61.979,159.540 61.169 C 160.277 60.894,161.493 60.254,162.243 59.745 C 162.992 59.237,164.639 58.525,165.902 58.162 C 167.166 57.800,168.380 57.365,168.600 57.196 C 168.820 57.027,170.350 56.572,172.000 56.184 C 173.650 55.797,175.270 55.253,175.600 54.977 C 175.930 54.700,177.280 54.354,178.600 54.207 C 179.920 54.061,182.170 53.596,183.600 53.174 C 188.807 51.636,197.593 51.300,213.599 52.026 " stroke="none" fill="#055b84" fill-rule="evenodd"></path></g></svg>